<svg width="130" height="130" viewBox="0 0 130 130" fill="none" xmlns="http://www.w3.org/2000/svg">
<path d="M23.0481 120.529L92.8764 88.153L42.9814 38.2578L10.6053 108.055C10.141 109.17 8.37669 113.658 13.1743 117.929C18.3743 122.541 21.9338 120.994 23.0481 120.529Z" fill="url(#paint0_linear_40000045_14396)"/>
<path d="M35.9865 53.3308L30.7865 64.6284C29.1151 68.6833 58.7677 98.6141 75.5127 96.1999L92.8769 88.1524C72.2936 97.6549 33.4484 58.8401 35.9865 53.3308Z" fill="url(#paint1_linear_40000045_14396)"/>
<path d="M25.4623 76.1111L24.2552 78.6802L20.1695 87.4704C20.1385 90.937 37.9981 108.765 49.1719 108.394L63.3482 101.832C47.9956 104.494 23.6981 79.8562 25.4623 76.1111Z" fill="url(#paint2_linear_40000045_14396)"/>
<path d="M10.9456 107.376C12.4313 110.347 19.7051 117.59 25.7408 119.292L40.7218 112.359L40.8146 112.297C31.5908 116.537 15.9908 100.814 15.7122 97.1614L10.9456 107.376Z" fill="url(#paint3_linear_40000045_14396)"/>
<path opacity="0.75" d="M23.0481 120.529L92.8764 88.153L42.9814 38.2578L10.6053 108.055C10.141 109.17 8.37669 113.658 13.1743 117.929C18.3743 122.541 21.9338 120.994 23.0481 120.529Z" fill="url(#paint4_radial_40000045_14396)"/>
<path opacity="0.75" d="M23.0481 120.529L92.8764 88.153L42.9814 38.2578L10.6053 108.055C10.141 109.17 8.37669 113.658 13.1743 117.929C18.3743 122.541 21.9338 120.994 23.0481 120.529Z" fill="url(#paint5_radial_40000045_14396)"/>
<path d="M66.8464 38.5045C66.0106 40.2069 64.3699 40.4545 63.1631 40.0831L65.144 36.1521C65.144 36.1521 67.3724 36.6474 67.4347 35.1926L67.5273 37.2355L66.8464 38.5045Z" fill="url(#paint6_linear_40000045_14396)"/>
<path d="M72.3873 16.8387C72.3873 16.8387 73.8108 16.1887 74.7084 14.3316C75.6064 12.4744 71.1799 8.97681 71.1799 8.97681L69.1064 12.5982C69.1064 12.5982 72.604 14.8887 71.5207 15.6625C70.4064 16.4363 72.3873 16.8387 72.3873 16.8387Z" fill="url(#paint7_linear_40000045_14396)"/>
<path d="M108.601 46.6156C109.251 40.9203 105.413 39.0322 104.02 39.187C104.02 39.187 103.772 37.3298 106.249 36.7417C107.889 36.3703 112.068 40.0846 110.984 44.2941L108.601 46.6156Z" fill="url(#paint8_linear_40000045_14396)"/>
<path d="M93.4655 87.7201C89.9989 91.1868 76.0081 82.7677 62.1723 68.9633C48.3677 55.1584 39.9486 41.1369 43.4153 37.6702C46.882 34.2035 60.8724 42.6226 74.7081 56.4275C88.5131 70.2633 96.9008 84.2535 93.4655 87.7201Z" fill="url(#paint9_linear_40000045_14396)"/>
<path d="M92.2894 85.4285C89.6586 88.0593 77.0919 79.7642 64.2468 66.8883C51.4015 54.0119 43.0753 41.4762 45.7063 38.8452C48.3372 36.2143 60.9036 44.5095 73.7493 57.3858C86.5944 70.2618 94.9203 82.7976 92.2894 85.4285Z" fill="url(#paint10_linear_40000045_14396)"/>
<path d="M74.6772 14.3325C74.6772 14.3325 73.0679 17.7682 72.8513 18.1396C72.0463 19.5015 69.7865 19.9659 65.7321 19.4087C61.6772 18.8515 60.5013 19.0682 60.3155 19.0992C60.1297 19.1611 57.7463 17.242 57.7463 17.242L57.963 15.292C57.963 15.292 58.5198 14.5492 60.3772 14.7968C63.689 15.292 73.439 16.9325 74.6772 14.3325Z" fill="url(#paint11_linear_40000045_14396)"/>
<path d="M82.725 71.8093C85.975 68.0951 89.0083 71.0049 90.9269 68.3426L87.646 65C85.7269 67.6309 82.9417 65.1549 79.5059 68.776L82.725 71.8093Z" fill="url(#paint12_linear_40000045_14396)"/>
<path d="M47.47 26.7437C51.9581 29.4056 47.9652 33.058 50.5033 35.1318L54.001 32.0056C51.4629 29.9318 55.1152 26.3414 50.6271 23.6794L47.47 26.7437Z" fill="url(#paint13_linear_40000045_14396)"/>
<path d="M94.9822 40.5161C95.1063 40.4851 95.168 39.7423 96.994 38.4423C98.8205 37.1423 102.937 39.1542 103.463 39.4637C104.02 39.7733 103.556 44.8804 103.556 44.8804C103.556 44.8804 98.418 39.4018 95.8489 40.6709C93.2798 41.909 94.9822 40.5161 94.9822 40.5161Z" fill="url(#paint14_linear_40000045_14396)"/>
<path d="M95.6629 53.2385C95.6629 53.2385 95.4771 55.2505 94.5487 56.1789C92.8771 57.8196 90.2154 55.3431 86.8413 56.2407C86.8413 56.2407 88.3889 52.3099 88.5438 52.0004C88.5438 52.0004 89.9055 51.1647 91.2987 51.9695C92.7222 52.7432 93.9604 52.9909 94.8271 52.5266C95.6938 52.0623 95.6629 53.2385 95.6629 53.2385Z" fill="url(#paint15_linear_40000045_14396)"/>
<path d="M104.731 44.385C104.731 44.385 101.419 45.9016 100.986 46.1183C100.552 46.335 99.5623 38.6278 101.946 37.854C104.36 37.0802 106.001 36.8016 106.248 36.7707C106.496 36.7088 102.101 37.1731 104.731 44.385Z" fill="#FFBF00"/>
<path d="M94.5477 56.1471C95.91 54.7231 97.7669 52.6185 97.6742 52.0304C97.2409 48.2542 94.1767 39.928 96.9934 38.4114C96.9934 38.4114 94.3619 40.2685 93.5576 40.8256C92.7526 41.3828 92.1644 42.8685 92.2267 45.3137C92.3811 49.5852 95.786 54.878 94.5477 56.1471Z" fill="#FFBF00"/>
<path d="M85.1392 25.5969C82.8799 41.4754 67.125 56.6421 67.125 56.6421L69.2608 59.8921C69.2608 59.8921 86.4083 42.0326 88.6059 26.0921L85.1392 25.5969Z" fill="url(#paint16_linear_40000045_14396)"/>
<path d="M56.0742 18.9739C55.7026 19.6549 56.786 20.8001 59.386 23.9573C61.986 27.1144 68.7341 35.4715 66.8149 38.5049L68.8884 34.2334C68.8884 34.2334 68.9193 30.8287 66.8767 27.5168C63.6576 22.3168 57.4983 16.7144 57.9625 15.3215L56.0742 18.9739Z" fill="url(#paint17_linear_40000045_14396)"/>
<path d="M69.8792 67.2895C70.5801 67.2895 71.1484 66.7213 71.1484 66.0203C71.1484 65.3194 70.5801 64.7512 69.8792 64.7512C69.1783 64.7512 68.6101 65.3194 68.6101 66.0203C68.6101 66.7213 69.1783 67.2895 69.8792 67.2895Z" fill="url(#paint18_linear_40000045_14396)"/>
<path d="M87.5533 14.5483C88.2542 14.5483 88.8224 13.9801 88.8224 13.2793C88.8224 12.5784 88.2542 12.0103 87.5533 12.0103C86.8524 12.0103 86.2842 12.5784 86.2842 13.2793C86.2842 13.9801 86.8524 14.5483 87.5533 14.5483Z" fill="url(#paint19_linear_40000045_14396)"/>
<path d="M75.6356 32.9646C76.3365 32.9646 76.9047 32.3964 76.9047 31.6955C76.9047 30.9947 76.3365 30.4265 75.6356 30.4265C74.9347 30.4265 74.3665 30.9947 74.3665 31.6955C74.3665 32.3964 74.9347 32.9646 75.6356 32.9646Z" fill="url(#paint20_linear_40000045_14396)"/>
<path d="M83.1578 56.2104C83.8587 56.2104 84.4269 55.6422 84.4269 54.9413C84.4269 54.2404 83.8587 53.6721 83.1578 53.6721C82.4569 53.6721 81.8887 54.2404 81.8887 54.9413C81.8887 55.6422 82.4569 56.2104 83.1578 56.2104Z" fill="url(#paint21_linear_40000045_14396)"/>
<path d="M115.782 53.1157C116.483 53.1157 117.051 52.5476 117.051 51.8467C117.051 51.1458 116.483 50.5776 115.782 50.5776C115.081 50.5776 114.513 51.1458 114.513 51.8467C114.513 52.5476 115.081 53.1157 115.782 53.1157Z" fill="url(#paint22_linear_40000045_14396)"/>
<path d="M107.703 79.8898C108.404 79.8898 108.972 79.3216 108.972 78.6207C108.972 77.9198 108.404 77.3516 107.703 77.3516C107.002 77.3516 106.434 77.9198 106.434 78.6207C106.434 79.3216 107.002 79.8898 107.703 79.8898Z" fill="url(#paint23_linear_40000045_14396)"/>
<path d="M102.411 63.5444C103.112 63.5444 103.68 62.9761 103.68 62.2752C103.68 61.5743 103.112 61.0061 102.411 61.0061C101.71 61.0061 101.142 61.5743 101.142 62.2752C101.142 62.9761 101.71 63.5444 102.411 63.5444Z" fill="url(#paint24_linear_40000045_14396)"/>
<path d="M109.375 29.0662C110.076 29.0662 110.644 28.498 110.644 27.7971C110.644 27.0962 110.076 26.5281 109.375 26.5281C108.674 26.5281 108.106 27.0962 108.106 27.7971C108.106 28.498 108.674 29.0662 109.375 29.0662Z" fill="url(#paint25_linear_40000045_14396)"/>
<path d="M95.1363 33.2131C95.8372 33.2131 96.4054 32.6449 96.4054 31.9441C96.4054 31.2432 95.8372 30.675 95.1363 30.675C94.4354 30.675 93.8672 31.2432 93.8672 31.9441C93.8672 32.6449 94.4354 33.2131 95.1363 33.2131Z" fill="url(#paint26_linear_40000045_14396)"/>
<path d="M84.2717 83.3555C97.2094 72.7389 119.124 70.5413 119.124 70.5413L119.836 65.6506C119.836 65.6506 93.8977 68.7457 80.155 80.6624C81.6403 81.684 83.0026 82.5815 84.2717 83.3555Z" fill="url(#paint27_linear_40000045_14396)"/>
<path d="M51.8035 52.7736C52.6701 53.9499 53.6296 55.1261 54.6509 56.3643C57.4058 50.2974 56.8176 45.5308 56.8176 45.5308L53.444 43.426C53.7844 47.1713 52.6392 50.7618 51.8035 52.7736Z" fill="url(#paint28_linear_40000045_14396)"/>
<defs>
<linearGradient id="paint0_linear_40000045_14396" x1="6.50756" y1="48.0087" x2="61.7501" y2="113.474" gradientUnits="userSpaceOnUse">
<stop offset="0.2544" stop-color="#FBE07A"/>
<stop offset="1" stop-color="#FF40BF"/>
</linearGradient>
<linearGradient id="paint1_linear_40000045_14396" x1="36.5303" y1="52.799" x2="82.374" y2="98.6429" gradientUnits="userSpaceOnUse">
<stop offset="0.2544" stop-color="#9F00E8"/>
<stop offset="1" stop-color="#7000A3"/>
</linearGradient>
<linearGradient id="paint2_linear_40000045_14396" x1="23.823" y1="77.7561" x2="55.6175" y2="109.55" gradientUnits="userSpaceOnUse">
<stop offset="0.2544" stop-color="#9F00E8"/>
<stop offset="1" stop-color="#7000A3"/>
</linearGradient>
<linearGradient id="paint3_linear_40000045_14396" x1="14.212" y1="98.619" x2="34.3332" y2="118.74" gradientUnits="userSpaceOnUse">
<stop offset="0.2544" stop-color="#9F00E8"/>
<stop offset="1" stop-color="#7000A3"/>
</linearGradient>
<radialGradient id="paint4_radial_40000045_14396" cx="0" cy="0" r="1" gradientUnits="userSpaceOnUse" gradientTransform="translate(36.4413 69.914) rotate(119.598) scale(31.7135 9.70905)">
<stop stop-color="white" stop-opacity="0.5"/>
<stop offset="1" stop-color="white" stop-opacity="0"/>
</radialGradient>
<radialGradient id="paint5_radial_40000045_14396" cx="0" cy="0" r="1" gradientUnits="userSpaceOnUse" gradientTransform="translate(58.727 98.3428) rotate(151.7) scale(50.272 15.6792)">
<stop stop-color="#440063" stop-opacity="0.75"/>
<stop offset="1" stop-color="#420061" stop-opacity="0"/>
</radialGradient>
<linearGradient id="paint6_linear_40000045_14396" x1="67.081" y1="37.3484" x2="74.6784" y2="34.922" gradientUnits="userSpaceOnUse">
<stop stop-color="#BD2719"/>
<stop offset="1" stop-color="#FF4E0D"/>
</linearGradient>
<linearGradient id="paint7_linear_40000045_14396" x1="74.145" y1="18.4977" x2="70.7434" y2="10.0467" gradientUnits="userSpaceOnUse">
<stop stop-color="#BD2719"/>
<stop offset="1" stop-color="#FF4E0D"/>
</linearGradient>
<linearGradient id="paint8_linear_40000045_14396" x1="111.979" y1="44.3093" x2="99.3087" y2="36.1907" gradientUnits="userSpaceOnUse">
<stop stop-color="#FFCB4B"/>
<stop offset="1" stop-color="#E81CA2"/>
</linearGradient>
<linearGradient id="paint9_linear_40000045_14396" x1="79.516" y1="27.7517" x2="51.2067" y2="117.005" gradientUnits="userSpaceOnUse">
<stop offset="0.2544" stop-color="#FBE07A"/>
<stop offset="1" stop-color="#E81CA2"/>
</linearGradient>
<linearGradient id="paint10_linear_40000045_14396" x1="88.8109" y1="48.2386" x2="45.3637" y2="78.7107" gradientUnits="userSpaceOnUse">
<stop stop-color="#FBE07A"/>
<stop offset="1" stop-color="white"/>
</linearGradient>
<linearGradient id="paint11_linear_40000045_14396" x1="53.8385" y1="17.2697" x2="67.8706" y2="17.0571" gradientUnits="userSpaceOnUse">
<stop stop-color="#BD2719"/>
<stop offset="1" stop-color="#FF4E0D"/>
</linearGradient>
<linearGradient id="paint12_linear_40000045_14396" x1="86.8698" y1="65.6581" x2="83.4952" y2="71.7129" gradientUnits="userSpaceOnUse">
<stop stop-color="#FF9214"/>
<stop offset="1" stop-color="#FF4E0D"/>
</linearGradient>
<linearGradient id="paint13_linear_40000045_14396" x1="47.4499" y1="19.1177" x2="52.5524" y2="33.7166" gradientUnits="userSpaceOnUse">
<stop stop-color="#80DAFE"/>
<stop offset="1" stop-color="#008EE6"/>
</linearGradient>
<linearGradient id="paint14_linear_40000045_14396" x1="99.594" y1="47.4851" x2="98.4256" y2="32.7584" gradientUnits="userSpaceOnUse">
<stop stop-color="#FFCB4B"/>
<stop offset="1" stop-color="#E81CA2"/>
</linearGradient>
<linearGradient id="paint15_linear_40000045_14396" x1="87.2254" y1="53.693" x2="95.3623" y2="55.0111" gradientUnits="userSpaceOnUse">
<stop stop-color="#FFCB4B"/>
<stop offset="1" stop-color="#E81CA2"/>
</linearGradient>
<linearGradient id="paint16_linear_40000045_14396" x1="81.6335" y1="26.1683" x2="69.5625" y2="75.8441" gradientUnits="userSpaceOnUse">
<stop offset="0.2544" stop-color="#E100FF"/>
<stop offset="1" stop-color="#7000A3"/>
</linearGradient>
<linearGradient id="paint17_linear_40000045_14396" x1="57.8915" y1="18.0293" x2="66.8209" y2="32.9116" gradientUnits="userSpaceOnUse">
<stop stop-color="#FF9214"/>
<stop offset="1" stop-color="#FF4E0D"/>
</linearGradient>
<linearGradient id="paint18_linear_40000045_14396" x1="67.452" y1="58.8774" x2="72.2707" y2="73.0512" gradientUnits="userSpaceOnUse">
<stop stop-color="#FFCB4B"/>
<stop offset="1" stop-color="#E81CA2"/>
</linearGradient>
<linearGradient id="paint19_linear_40000045_14396" x1="83.682" y1="6.93224" x2="91.6191" y2="19.9721" gradientUnits="userSpaceOnUse">
<stop stop-color="#FBE07A"/>
<stop offset="1" stop-color="#E81CA2"/>
</linearGradient>
<linearGradient id="paint20_linear_40000045_14396" x1="75.4465" y1="30.9933" x2="77.4307" y2="38.5053" gradientUnits="userSpaceOnUse">
<stop stop-color="#80DAFE"/>
<stop offset="1" stop-color="#008EE6"/>
</linearGradient>
<linearGradient id="paint21_linear_40000045_14396" x1="82.3025" y1="52.5313" x2="83.5137" y2="55.9965" gradientUnits="userSpaceOnUse">
<stop stop-color="#80DAFE"/>
<stop offset="1" stop-color="#008EE6"/>
</linearGradient>
<linearGradient id="paint22_linear_40000045_14396" x1="116.703" y1="48.8841" x2="114.435" y2="56.1129" gradientUnits="userSpaceOnUse">
<stop stop-color="#FFCB4B"/>
<stop offset="1" stop-color="#E81CA2"/>
</linearGradient>
<linearGradient id="paint23_linear_40000045_14396" x1="107.329" y1="70.5119" x2="108.038" y2="85.9614" gradientUnits="userSpaceOnUse">
<stop stop-color="#FFCB4B"/>
<stop offset="1" stop-color="#E81CA2"/>
</linearGradient>
<linearGradient id="paint24_linear_40000045_14396" x1="101.58" y1="59.8767" x2="102.79" y2="63.3418" gradientUnits="userSpaceOnUse">
<stop offset="0.2544" stop-color="#9F00E8"/>
<stop offset="1" stop-color="#7000A3"/>
</linearGradient>
<linearGradient id="paint25_linear_40000045_14396" x1="111.839" y1="23.5681" x2="107.161" y2="31.6471" gradientUnits="userSpaceOnUse">
<stop stop-color="#80DAFE"/>
<stop offset="1" stop-color="#008EE6"/>
</linearGradient>
<linearGradient id="paint26_linear_40000045_14396" x1="94.8091" y1="30.1434" x2="96.3681" y2="38.7894" gradientUnits="userSpaceOnUse">
<stop stop-color="#FF9214"/>
<stop offset="1" stop-color="#FF4E0D"/>
</linearGradient>
<linearGradient id="paint27_linear_40000045_14396" x1="71.3833" y1="73.8618" x2="116.573" y2="74.7902" gradientUnits="userSpaceOnUse">
<stop stop-color="#80DAFE"/>
<stop offset="1" stop-color="#008EE6"/>
</linearGradient>
<linearGradient id="paint28_linear_40000045_14396" x1="46.4197" y1="68.8346" x2="57.2531" y2="41.9061" gradientUnits="userSpaceOnUse">
<stop stop-color="#FBE07A"/>
<stop offset="1" stop-color="#E81CA2"/>
</linearGradient>
</defs>
</svg>
