<svg width="125" height="42" viewBox="0 0 125 42" fill="none" xmlns="http://www.w3.org/2000/svg">
<g clip-path="url(#clip0_56_2012)">
<path d="M117.698 34.1313H125.001L113.138 19.1378L124.347 7.08118H117.389L105.41 19.7174V7.08175H99.1904V34.1313H105.412V27.2916L109.044 23.5045L117.698 34.1313Z" fill="#FFFFFF"/>
<path d="M98.3513 34.132L92.2841 25.4374C95.8011 23.9275 97.8489 20.9545 97.8489 16.8968C97.8489 10.8301 93.3271 7.08191 86.1024 7.08191H74.3896V34.1314H80.6497V26.5966H86.4114L91.629 34.132H98.3513ZM91.5117 16.8968C91.5117 19.8342 89.5789 21.6114 85.7534 21.6114H80.6526V12.1833H85.7534C89.5789 12.1833 91.5117 13.9209 91.5117 16.8968Z" fill="#FFFFFF"/>
<path d="M67.0517 34.1318H73.6207L61.5257 7.08228H55.343L43.2864 34.1318H49.7009L52.0965 28.3352H64.6555L67.0517 34.1318ZM54.1071 23.5823L58.3966 13.2256L62.6861 23.5823H54.1071Z" fill="#FFFFFF"/>
<path fill-rule="evenodd" clip-rule="evenodd" d="M21.3662 23.3344H14.7856L14.0724 25.9989L12.2877 32.662L18.0773 36.0048L23.8669 32.662L23.202 30.1816L22.0817 26.0001L21.3662 23.3344ZM15.9947 18.8236H20.1576L18.0762 11.0565L15.9947 18.8236ZM4.50961 23.3344V28.1727L8.24216 30.3279L9.99373 23.7938L10.1198 23.335L4.50961 23.3344ZM26.0053 23.3344L26.1313 23.7932L26.147 23.7496L27.9096 30.3273L31.6422 28.1721V23.3338L26.0053 23.3344ZM16.3687 0H19.7842C21.4806 6.33029 23.0806 12.5142 24.7601 18.8236H36.1523V23.3344H36.1361L36.1523 30.7762L18.0756 41.2131L0 30.7774V18.8236H11.3649C13.0416 12.5311 14.6787 6.30358 16.3687 0Z" fill="#FFFFFF"/>
</g>
<defs>
<clipPath id="clip0_56_2012">
<rect width="125" height="41.2131" fill="white"/>
</clipPath>
</defs>
</svg>
