<svg width="20" height="24" viewBox="0 0 20 24" fill="none" xmlns="http://www.w3.org/2000/svg">
<path fill-rule="evenodd" clip-rule="evenodd" d="M11.9651 13.0673H8.27993L7.88056 14.5594L6.88114 18.2907L10.1233 20.1627L13.3655 18.2907L12.9931 16.9017L12.3657 14.56L11.9651 13.0673ZM8.95705 10.5412H11.2883L10.1227 6.19165L8.95705 10.5412ZM2.52538 13.0673V15.7767L4.61561 16.9836L5.59649 13.3245L5.66707 13.0676L2.52538 13.0673ZM14.563 13.0673L14.6335 13.3242L14.6423 13.2998L15.6294 16.9833L17.7196 15.7764V13.0669L14.563 13.0673ZM9.16649 0H11.0791C12.0291 3.54496 12.9251 7.00797 13.8657 10.5412H20.2453V13.0673H20.2362L20.2453 17.2347L10.1223 23.0793L0 17.2353V10.5412H6.36435C7.30327 7.0174 8.22008 3.53 9.16649 0Z" fill="#E71623"/>
</svg>
