<svg width="329" height="202" viewBox="0 0 329 202" fill="none" xmlns="http://www.w3.org/2000/svg">
<path d="M265.229 180.562C263.017 173.891 252.893 174.546 252.893 174.546L253.148 179.179C259.019 178.306 262.649 184.176 262.649 184.176L265.229 180.562Z" fill="#199319"/>
<path d="M66.3368 198.266C64.153 191.595 54 192.226 54 192.226L54.2836 196.883C60.1542 196.01 63.7844 201.88 63.7844 201.88L66.3368 198.266Z" fill="#E0E0E0"/>
<path d="M77.1259 51.9355C71.6523 52.445 71 58.3153 71 58.3153L74.6585 58.6792C74.6585 55.2346 79.6783 53.8276 79.6783 53.8276L77.1259 51.9355Z" fill="#199319"/>
<path d="M328.93 157.761C329.724 153.103 323.258 151.09 323.258 151.09L321.925 154.025C325.839 154.874 326.207 159.386 326.207 159.386L328.93 157.761Z" fill="#E0E0E0"/>
<path d="M138.005 7.2861C138.799 2.62862 132.333 0.615234 132.333 0.615234L131 3.57468C134.914 4.4237 135.282 8.91136 135.282 8.91136L138.005 7.2861Z" fill="#199319"/>
<path d="M0.0584404 128.601C-0.905816 135.879 10.3816 137.674 10.3816 137.674L12.4236 132.822C5.64545 132.289 4.68117 125.545 4.68117 125.545L0.0584404 128.601Z" fill="#199319"/>
<path d="M251.786 102.137C257.288 102.404 259.047 96.7033 259.047 96.7033L255.501 95.8301C254.849 99.2262 249.631 99.9296 249.631 99.9296L251.786 102.137Z" fill="#199319"/>
<path d="M281.82 121.3C280.345 121.654 278.808 121.777 277.282 121.664C275.756 121.78 274.218 121.657 272.744 121.3C275.739 120.783 278.825 120.783 281.82 121.3Z" fill="#E0E0E0"/>
<path d="M286.641 110.75C287.209 113.347 287.209 116.012 286.641 118.61C286.036 116.015 286.036 113.344 286.641 110.75Z" fill="#E0E0E0"/>
<path d="M291.746 121.032C293.221 120.678 294.758 120.555 296.284 120.668C297.81 120.552 299.347 120.676 300.821 121.032C297.827 121.55 294.741 121.55 291.746 121.032Z" fill="#E0E0E0"/>
<path d="M286.955 131.611C286.35 129.009 286.35 126.33 286.955 123.728C287.522 126.333 287.522 129.006 286.955 131.611Z" fill="#E0E0E0"/>
<path d="M294.272 127.194C294.102 127.316 293.223 126.685 292.315 125.787C291.408 124.89 290.869 124.017 291.039 123.895C291.209 123.774 292.117 124.38 292.996 125.302C293.875 126.224 294.471 126.928 294.272 127.194Z" fill="#E0E0E0"/>
<path d="M293.847 115.067C294.017 115.237 293.422 115.989 292.486 116.79C291.55 117.59 290.671 118.124 290.501 117.978C290.33 117.833 290.926 117.057 291.862 116.256C292.798 115.456 293.677 115.067 293.847 115.067Z" fill="#E0E0E0"/>
<path d="M283.466 118.147C283.296 118.317 282.445 117.929 281.566 117.298C280.686 116.668 280.119 116.037 280.261 115.891C280.403 115.746 281.254 116.11 282.133 116.716C283.012 117.323 283.607 118.002 283.466 118.147Z" fill="#E0E0E0"/>
<path d="M283.039 123.436C283.237 123.557 282.699 124.309 281.848 125.11C280.997 125.91 280.174 126.42 280.004 126.274C279.834 126.129 280.345 125.377 281.195 124.6C282.046 123.824 282.869 123.291 283.039 123.436Z" fill="#E0E0E0"/>
<path d="M34.7433 99.6619C31.7484 100.179 28.6628 100.179 25.668 99.6619C27.1426 99.3082 28.6798 99.1849 30.2056 99.298C31.7315 99.1822 33.2692 99.3055 34.7433 99.6619Z" fill="#199319"/>
<path d="M39.5652 89.1113C40.1704 91.7138 40.1704 94.3927 39.5652 96.9951C38.96 94.3927 38.96 91.7138 39.5652 89.1113Z" fill="#199319"/>
<path d="M44.6992 99.4194C47.6941 98.9019 50.7797 98.9019 53.7746 99.4194C50.7797 99.9369 47.6941 99.9369 44.6992 99.4194Z" fill="#199319"/>
<path d="M39.8786 109.971C39.2735 107.377 39.2735 104.706 39.8786 102.111C40.4838 104.706 40.4838 107.377 39.8786 109.971Z" fill="#199319"/>
<path d="M47.2225 105.365C47.024 105.511 46.1448 104.88 45.2657 103.958C44.3865 103.036 43.7909 102.212 43.9895 102.066C44.188 101.921 45.0388 102.576 45.9463 103.473C46.8539 104.371 47.3927 105.365 47.2225 105.365Z" fill="#199319"/>
<path d="M46.8003 93.4764C46.9705 93.622 46.3466 94.3982 45.439 95.1987C44.5315 95.9992 43.6239 96.5086 43.4538 96.3631C43.2836 96.2175 43.8792 95.4655 44.8151 94.665C45.751 93.8645 46.6302 93.2339 46.8003 93.4764Z" fill="#199319"/>
<path d="M36.3891 96.5321C36.2473 96.6776 35.3964 96.3138 34.5173 95.6831C33.6381 95.0524 33.0425 94.4217 33.2127 94.2519C33.3828 94.0821 34.2053 94.4702 35.0845 95.1009C35.9636 95.7316 36.5592 96.3623 36.3891 96.5321Z" fill="#199319"/>
<path d="M35.9924 101.797C36.1625 101.942 35.6237 102.694 34.8012 103.495C33.9788 104.295 33.128 104.805 32.9294 104.659C32.7309 104.513 33.2981 103.761 34.1206 102.985C34.943 102.209 35.7939 101.651 35.9924 101.797Z" fill="#199319"/>
<path d="M231.075 19.7195C228.08 20.237 224.995 20.237 222 19.7195C223.475 19.3658 225.012 19.2425 226.538 19.3556C228.063 19.2398 229.601 19.3631 231.075 19.7195Z" fill="#199319"/>
<path d="M235.897 9.16895C236.502 11.7714 236.502 14.4503 235.897 17.0527C235.292 14.4503 235.292 11.7714 235.897 9.16895Z" fill="#199319"/>
<path d="M241.031 19.477C244.026 18.9595 247.112 18.9595 250.107 19.477C247.112 19.9945 244.026 19.9945 241.031 19.477Z" fill="#199319"/>
<path d="M236.211 30.0284C235.606 27.4341 235.606 24.7632 236.211 22.1689C236.816 24.7632 236.816 27.4341 236.211 30.0284Z" fill="#199319"/>
<path d="M243.555 25.4229C243.356 25.5684 242.477 24.9377 241.598 24.0159C240.719 23.0941 240.123 22.2693 240.321 22.1238C240.52 21.9783 241.371 22.6332 242.278 23.5308C243.186 24.4283 243.725 25.4229 243.555 25.4229Z" fill="#199319"/>
<path d="M243.132 13.534C243.303 13.6796 242.679 14.4558 241.771 15.2563C240.864 16.0568 239.956 16.5662 239.786 16.4207C239.616 16.2751 240.211 15.5232 241.147 14.7227C242.083 13.9221 242.962 13.2915 243.132 13.534Z" fill="#199319"/>
<path d="M232.721 16.5897C232.579 16.7353 231.728 16.3714 230.849 15.7407C229.97 15.11 229.375 14.4793 229.545 14.3095C229.715 14.1397 230.537 14.5278 231.416 15.1585C232.296 15.7892 232.891 16.4199 232.721 16.5897Z" fill="#199319"/>
<path d="M232.324 21.8542C232.495 21.9998 231.956 22.7517 231.133 23.5522C230.311 24.3527 229.46 24.8622 229.261 24.7166C229.063 24.5711 229.63 23.8191 230.453 23.0428C231.275 22.2666 232.126 21.7087 232.324 21.8542Z" fill="#199319"/>
</svg>
