<svg width="561" height="375" viewBox="0 0 561 375" fill="none" xmlns="http://www.w3.org/2000/svg">
<path d="M520.101 262.574H371.611V331.053H520.101V262.574Z" fill="#F5F5F5"/>
<path d="M516.567 327.824H375.014V266.174H516.567V327.824ZM375.936 326.901H515.645V267.097H375.936V326.901Z" fill="#E0E0E0"/>
<path d="M556.379 262.574H520.101V331.053H556.379V262.574Z" fill="#E0E0E0"/>
<path d="M375.508 285.252H516.106C516.148 285.243 516.186 285.22 516.214 285.186C516.241 285.152 516.256 285.11 516.256 285.067C516.256 285.023 516.241 284.981 516.214 284.947C516.186 284.914 516.148 284.89 516.106 284.881H375.508C375.465 284.89 375.427 284.914 375.4 284.947C375.372 284.981 375.357 285.023 375.357 285.067C375.357 285.11 375.372 285.152 375.4 285.186C375.427 285.22 375.465 285.243 375.508 285.252Z" fill="#E0E0E0"/>
<path d="M446.251 285.071C446.626 278.874 446.626 272.659 446.251 266.462C446.251 266.412 446.231 266.364 446.195 266.328C446.16 266.293 446.112 266.273 446.062 266.273C446.011 266.273 445.963 266.293 445.928 266.328C445.892 266.364 445.872 266.412 445.872 266.462C445.518 272.66 445.534 278.874 445.921 285.071C445.929 285.103 445.948 285.132 445.974 285.152C446 285.173 446.032 285.184 446.066 285.184C446.099 285.184 446.131 285.173 446.157 285.152C446.184 285.132 446.202 285.103 446.21 285.071H446.251Z" fill="#E0E0E0"/>
<path d="M484.102 275.738C484.102 276.117 483.99 276.488 483.779 276.804C483.568 277.12 483.268 277.366 482.918 277.511C482.567 277.656 482.181 277.694 481.809 277.62C481.436 277.546 481.094 277.363 480.826 277.095C480.557 276.826 480.375 276.484 480.301 276.112C480.226 275.74 480.264 275.354 480.41 275.003C480.555 274.652 480.801 274.353 481.117 274.142C481.432 273.931 481.803 273.818 482.183 273.818C482.435 273.817 482.685 273.866 482.919 273.962C483.152 274.058 483.364 274.2 483.543 274.378C483.721 274.557 483.862 274.769 483.958 275.002C484.055 275.235 484.103 275.485 484.102 275.738Z" fill="#E0E0E0"/>
<path d="M410.295 275.738C410.295 276.118 410.182 276.489 409.971 276.805C409.759 277.121 409.459 277.367 409.108 277.512C408.757 277.657 408.37 277.694 407.998 277.62C407.625 277.545 407.283 277.361 407.015 277.092C406.747 276.823 406.565 276.48 406.492 276.107C406.419 275.734 406.458 275.348 406.605 274.997C406.751 274.647 406.998 274.348 407.315 274.138C407.632 273.928 408.004 273.817 408.384 273.818C408.635 273.818 408.884 273.868 409.117 273.965C409.349 274.061 409.56 274.203 409.738 274.381C409.915 274.559 410.056 274.771 410.152 275.004C410.247 275.237 410.296 275.486 410.295 275.738Z" fill="#E0E0E0"/>
<path d="M447.701 296.999C447.703 297.379 447.591 297.751 447.381 298.068C447.171 298.385 446.871 298.632 446.52 298.778C446.169 298.925 445.782 298.963 445.409 298.89C445.036 298.816 444.693 298.633 444.424 298.364C444.156 298.095 443.973 297.752 443.899 297.379C443.825 297.006 443.864 296.619 444.01 296.268C444.156 295.917 444.404 295.618 444.72 295.407C445.037 295.197 445.41 295.086 445.79 295.087C446.297 295.087 446.783 295.289 447.141 295.647C447.5 296.006 447.701 296.492 447.701 296.999Z" fill="#E0E0E0"/>
<path d="M389.363 331.053L381.719 374.044H386.019L400.113 331.053H389.363Z" fill="#E0E0E0"/>
<path d="M509.598 331.053L515.99 374.119H511.69L498.848 331.053H509.598Z" fill="#E0E0E0"/>
<path d="M538.297 331.053L545.546 374.119H541.246L527.547 331.053H538.297Z" fill="#E0E0E0"/>
<path d="M447.578 316.382C447.578 316.761 447.465 317.132 447.255 317.448C447.044 317.763 446.744 318.009 446.393 318.155C446.042 318.3 445.656 318.338 445.284 318.264C444.912 318.19 444.57 318.007 444.301 317.739C444.033 317.47 443.85 317.128 443.776 316.756C443.702 316.384 443.74 315.998 443.885 315.647C444.031 315.296 444.277 314.997 444.592 314.786C444.908 314.575 445.279 314.462 445.659 314.462C445.911 314.461 446.161 314.51 446.394 314.606C446.628 314.702 446.84 314.843 447.018 315.022C447.197 315.2 447.338 315.412 447.434 315.646C447.53 315.879 447.579 316.129 447.578 316.382Z" fill="#E0E0E0"/>
<path d="M375.508 306.464H516.106C516.156 306.464 516.204 306.444 516.24 306.408C516.275 306.373 516.295 306.324 516.295 306.274C516.295 306.224 516.275 306.176 516.24 306.14C516.204 306.105 516.156 306.085 516.106 306.085H375.508C375.458 306.085 375.409 306.105 375.374 306.14C375.338 306.176 375.318 306.224 375.318 306.274C375.318 306.324 375.338 306.373 375.374 306.408C375.409 306.444 375.458 306.464 375.508 306.464Z" fill="#E0E0E0"/>
<path d="M475.263 239.319L475.215 230.184L430.321 230.419L430.369 239.554L475.263 239.319Z" fill="#E0E0E0"/>
<path d="M480.653 262.371L480.579 248.17L430.537 248.432L430.611 262.633L480.653 262.371Z" fill="#F5F5F5"/>
<path d="M471.063 262.286C470.824 259.927 470.744 257.555 470.824 255.185C470.744 252.815 470.824 250.443 471.063 248.084C471.307 250.443 471.389 252.815 471.31 255.185C471.389 257.555 471.306 259.927 471.063 262.286Z" fill="#E0E0E0"/>
<path d="M473.139 262.286C472.9 259.927 472.821 257.555 472.9 255.185C472.82 252.815 472.9 250.443 473.139 248.084C473.383 250.443 473.465 252.815 473.386 255.185C473.465 257.555 473.383 259.927 473.139 262.286Z" fill="#E0E0E0"/>
<path d="M438.17 262.286C438.03 262.286 437.923 259.106 437.923 255.185C437.923 251.264 438.03 248.084 438.17 248.084C438.409 250.443 438.488 252.815 438.409 255.185C438.488 257.555 438.408 259.927 438.17 262.286Z" fill="#E0E0E0"/>
<path d="M440.271 262.286C440.027 259.927 439.944 257.555 440.023 255.185C439.944 252.815 440.026 250.443 440.271 248.084C440.509 250.443 440.589 252.815 440.509 255.185C440.589 257.555 440.509 259.927 440.271 262.286Z" fill="#E0E0E0"/>
<path d="M444.859 255.408C444.859 255.276 449.909 255.16 456.128 255.16C462.348 255.16 467.405 255.276 467.405 255.408C467.405 255.539 462.356 255.655 456.128 255.655C449.901 255.655 444.859 255.548 444.859 255.408Z" fill="#E0E0E0"/>
<path d="M499.44 248.086L499.393 238.95L437.645 239.274L437.693 248.409L499.44 248.086Z" fill="#EBEBEB"/>
<path d="M490.626 246.964C490.04 246.972 489.464 246.806 488.972 246.486C488.481 246.166 488.095 245.707 487.865 245.167C487.635 244.628 487.57 244.032 487.68 243.456C487.789 242.879 488.068 242.348 488.479 241.931C488.891 241.513 489.418 241.227 489.993 241.11C490.568 240.992 491.164 241.048 491.707 241.271C492.25 241.493 492.714 241.872 493.041 242.36C493.368 242.847 493.542 243.42 493.542 244.007C493.547 244.785 493.242 245.534 492.696 246.088C492.149 246.643 491.405 246.958 490.626 246.964Z" fill="#E0E0E0"/>
<path d="M482.604 244.921V243.092H441.268V244.921H482.604Z" fill="#E0E0E0"/>
<path d="M16.475 71.6037C16.475 71.6037 11.2277 75.6071 16.2609 80.8956C16.3027 80.9416 16.3535 80.9785 16.4102 81.004C16.4669 81.0295 16.5282 81.0431 16.5904 81.0439L62.4981 80.772C62.4981 80.772 66.4191 76.3732 63.1653 71.3071L16.475 71.6037Z" fill="#EBEBEB"/>
<path d="M52.3576 75.7883C52.3576 75.8377 46.6408 75.8789 39.5894 75.8789C32.5381 75.8789 26.8213 75.8789 26.8213 75.7883C26.8213 75.6977 32.5381 75.6895 39.5894 75.6895C46.6408 75.6895 52.3576 75.7306 52.3576 75.7883Z" fill="#E0E0E0"/>
<path d="M45.1832 77.4439C45.1832 77.4933 42.4977 77.5345 39.178 77.5345C35.8583 77.5345 33.1729 77.5345 33.1729 77.4439C33.1729 77.3533 35.8665 77.3533 39.178 77.3533C42.4895 77.3533 45.1832 77.3945 45.1832 77.4439Z" fill="#E0E0E0"/>
<path d="M57.0534 80.6238C57.0534 80.6238 57.1522 80.0966 57.2922 79.2481C57.4715 78.1398 57.5542 77.0181 57.5394 75.8955C57.5308 74.773 57.4205 73.6536 57.2099 72.551C57.0533 71.7273 56.9133 71.1918 56.9463 71.1836C57.0036 71.2962 57.0479 71.4151 57.0781 71.5378C57.1522 71.7685 57.2428 72.1062 57.3417 72.5263C57.8358 74.7457 57.8582 77.0442 57.4076 79.2728C57.3169 79.693 57.2346 80.0389 57.1604 80.2696C57.1349 80.3905 57.0991 80.509 57.0534 80.6238Z" fill="#E0E0E0"/>
<path d="M60.4803 71.2495C60.5594 71.3538 60.6258 71.4672 60.678 71.5872C60.7582 71.7185 60.8271 71.8563 60.884 71.9991C60.974 72.1812 61.0537 72.3682 61.1229 72.5593C61.3054 73.0559 61.4513 73.5653 61.5594 74.0832C61.6797 74.719 61.7458 75.3638 61.7572 76.0108C61.7576 76.6599 61.6997 77.3078 61.5842 77.9466C61.491 78.4682 61.3532 78.9808 61.1723 79.4788C61.1064 79.693 61.0158 79.8742 60.9499 80.0472C60.884 80.2202 60.8098 80.3437 60.7522 80.4591C60.6975 80.5779 60.6313 80.691 60.5545 80.7968C60.5545 80.7968 60.7769 80.2861 61.0487 79.4376C61.2088 78.942 61.3327 78.4354 61.4194 77.9219C61.5218 77.2901 61.5714 76.6508 61.5677 76.0108C61.5556 74.8515 61.3638 73.701 60.9993 72.6005C60.711 71.7602 60.4474 71.266 60.4803 71.2495Z" fill="#E0E0E0"/>
<path d="M23.7649 80.6897C23.6793 80.5958 23.6072 80.4905 23.5507 80.3767C23.4701 80.2558 23.3985 80.1292 23.3365 79.9978C23.2624 79.8412 23.1635 79.6683 23.0894 79.4706C22.8955 79.0025 22.7466 78.517 22.6445 78.0208C22.5179 77.4112 22.4571 76.7898 22.4633 76.1673C22.4765 75.5487 22.5538 74.933 22.694 74.3303C22.8082 73.835 22.971 73.3522 23.18 72.8888C23.2624 72.6911 23.3612 72.5181 23.4354 72.3698C23.5022 72.2377 23.5794 72.111 23.666 71.9909C23.7262 71.8844 23.798 71.7849 23.8802 71.6943C23.8802 71.6943 23.6166 72.1556 23.2953 72.9382C23.1141 73.4016 22.9682 73.878 22.8587 74.3633C22.7317 74.9593 22.6628 75.5662 22.6528 76.1755C22.6478 76.7832 22.7002 77.39 22.8093 77.9878C22.9 78.4768 23.0351 78.9566 23.2129 79.4211C23.4683 80.2202 23.7649 80.665 23.7649 80.6897Z" fill="#E0E0E0"/>
<path d="M18.7648 81.8098C18.6784 81.6965 18.5986 81.5782 18.5259 81.4556C18.46 81.3403 18.3694 81.2002 18.2871 81.0273C18.1856 80.8347 18.0948 80.6367 18.0152 80.4342C17.7892 79.9024 17.6127 79.3509 17.488 78.7867C17.3363 78.1071 17.248 77.4149 17.2244 76.719C17.2161 76.0204 17.274 75.3226 17.3974 74.6349C17.4945 74.0724 17.6462 73.5206 17.8505 72.9874C17.9226 72.7829 18.0051 72.5822 18.0976 72.3861C18.1617 72.233 18.236 72.0844 18.32 71.9413C18.4518 71.7024 18.5259 71.5788 18.5424 71.5871C18.5589 71.5953 18.2788 72.1225 17.974 73.0286C17.7921 73.5657 17.6544 74.1167 17.5622 74.6761C17.4518 75.3513 17.4022 76.035 17.4139 76.719C17.4338 77.4057 17.5137 78.0892 17.6528 78.7619C17.7729 79.3083 17.9325 79.8451 18.1305 80.3683C18.4848 81.2826 18.8225 81.7851 18.7648 81.8098Z" fill="#E0E0E0"/>
<path d="M60.8342 94.751V103.573H43.8154V94.751H60.8342Z" fill="#EBEBEB"/>
<path d="M5.91507 99.2324C5.91507 99.3065 5.91507 99.3806 5.91507 99.463C5.99708 100.746 6.56671 101.948 7.50716 102.825C8.44761 103.701 9.68762 104.184 10.9729 104.175H61.6007V103.574H49.5904C49.0097 103.576 48.4342 103.463 47.8975 103.241C47.3607 103.019 46.8733 102.693 46.4634 102.282C46.0535 101.87 45.7293 101.382 45.5096 100.844C45.2899 100.307 45.179 99.7307 45.1833 99.15C45.1833 97.9848 45.6457 96.8671 46.4688 96.0424C47.292 95.2177 48.4087 94.7533 49.5739 94.7511H61.5925V93.8203L10.9482 93.9933C10.2709 93.9973 9.60123 94.1371 8.97888 94.4044C8.35653 94.6717 7.79409 95.0611 7.32485 95.5496C6.8556 96.038 6.48906 96.6156 6.24691 97.2482C6.00477 97.8807 5.89193 98.5554 5.91507 99.2324Z" fill="#E0E0E0"/>
<path d="M60.8337 99.2652C60.8337 99.3146 57.341 99.3558 53.0246 99.3558C48.7081 99.3558 45.2236 99.3558 45.2236 99.2652C45.2236 99.1746 48.7163 99.1746 53.0246 99.1746C57.3328 99.1746 60.8337 99.2157 60.8337 99.2652Z" fill="#E0E0E0"/>
<path d="M60.5707 101.242C60.5707 101.292 57.2757 101.333 53.1569 101.333C49.0382 101.333 45.7432 101.292 45.7432 101.242C45.7432 101.193 49.0382 101.152 53.1569 101.152C57.2757 101.152 60.5707 101.193 60.5707 101.242Z" fill="#E0E0E0"/>
<path d="M60.8346 103.054C60.8346 103.104 57.8608 103.145 54.1951 103.145C50.5294 103.145 47.5557 103.145 47.5557 103.054C47.5557 102.964 50.5212 102.964 54.1951 102.964C57.869 102.964 60.8346 103.005 60.8346 103.054Z" fill="#E0E0E0"/>
<path d="M60.8342 97.4859C60.8342 97.5353 57.4074 97.5765 53.1898 97.5765C48.9722 97.5765 45.5371 97.5353 45.5371 97.4859C45.5371 97.4365 48.9639 97.3953 53.1898 97.3953C57.4156 97.3953 60.8342 97.4365 60.8342 97.4859Z" fill="#E0E0E0"/>
<path d="M60.5703 95.7066C60.5703 95.756 57.5224 95.7972 53.7661 95.7972C50.0098 95.7972 46.9619 95.756 46.9619 95.7066C46.9619 95.6572 50.0016 95.616 53.7661 95.616C57.5307 95.616 60.5703 95.6572 60.5703 95.7066Z" fill="#E0E0E0"/>
<path d="M12.0437 94.1414C11.6544 94.5387 11.2963 94.9656 10.9729 95.4182C10.2058 96.5278 9.80244 97.8483 9.81867 99.1972C9.83491 100.546 10.2699 101.856 11.0635 102.947C11.3977 103.393 11.7668 103.812 12.1673 104.199C12.0354 104.124 11.9136 104.033 11.8048 103.928C11.4955 103.659 11.219 103.355 10.9811 103.021C10.1365 101.924 9.67108 100.582 9.65474 99.1978C9.6384 97.8133 10.0721 96.4609 10.8905 95.344C11.1294 95.0039 11.4057 94.6917 11.7142 94.4132C11.8137 94.3107 11.9242 94.2195 12.0437 94.1414Z" fill="#F5F5F5"/>
<path d="M10.3381 93.9519C9.94687 94.3499 9.58615 94.7767 9.25894 95.2287C8.50562 96.3456 8.10396 97.6625 8.10569 99.0097C8.13325 100.353 8.56689 101.657 9.34955 102.75C9.68375 103.196 10.0529 103.614 10.4534 104.002C10.3202 103.932 10.1981 103.843 10.0909 103.738C9.78769 103.463 9.51181 103.16 9.26718 102.832C8.4232 101.733 7.95819 100.39 7.94185 99.0042C7.92552 97.6186 8.35873 96.265 9.17656 95.1463C9.41762 94.8104 9.69376 94.5012 10.0003 94.2237C10.1004 94.1186 10.214 94.0272 10.3381 93.9519Z" fill="#F5F5F5"/>
<path d="M44.738 94.1414C44.3442 94.537 43.9833 94.964 43.6589 95.4182C42.8918 96.5278 42.4885 97.8483 42.5047 99.1972C42.5209 100.546 42.9559 101.856 43.7495 102.947C44.0867 103.391 44.4556 103.809 44.8533 104.199C44.7231 104.122 44.6016 104.031 44.4909 103.928C44.1836 103.657 43.9073 103.353 43.6671 103.021C42.8196 101.926 42.3489 100.585 42.3252 99.2005C42.3014 97.8155 42.7259 96.4599 43.5353 95.3358C43.7791 94.9996 44.055 94.6878 44.3591 94.405C44.4734 94.3011 44.6008 94.2125 44.738 94.1414Z" fill="#F5F5F5"/>
<path d="M43.0242 93.9519C42.633 94.3499 42.2723 94.7767 41.9451 95.2287C41.178 96.3383 40.7747 97.6589 40.7909 99.0077C40.8072 100.357 41.2421 101.667 42.0357 102.758C42.3729 103.201 42.7418 103.62 43.1395 104.01C43.0079 103.938 42.8861 103.849 42.7771 103.746C42.4739 103.472 42.198 103.168 41.9534 102.84C41.1144 101.739 40.6525 100.397 40.6362 99.0124C40.6199 97.628 41.05 96.2753 41.8627 95.1546C42.1062 94.8206 42.3822 94.5116 42.6865 94.232C42.7861 94.124 42.8997 94.0298 43.0242 93.9519Z" fill="#F5F5F5"/>
<path d="M17.8092 100.459L17.7598 96.8926C17.7774 96.58 17.7355 96.267 17.6362 95.97C17.5891 95.821 17.5006 95.6884 17.381 95.5877C17.2614 95.4871 17.1156 95.4225 16.9607 95.4016C16.6766 95.3454 16.3818 95.3813 16.1195 95.5043C15.8573 95.6273 15.6411 95.8309 15.5027 96.0854C15.2324 96.6289 15.1102 97.2341 15.1485 97.8399C15.1417 98.7837 15.1885 99.727 15.2885 100.665C15.305 101.112 15.4174 101.551 15.618 101.95C15.7188 102.152 15.8743 102.32 16.0667 102.437C16.2591 102.553 16.4805 102.613 16.7054 102.609C16.925 102.573 17.1303 102.477 17.2989 102.332C17.4675 102.187 17.5927 101.998 17.6609 101.786C17.7941 101.357 17.8444 100.907 17.8092 100.459Z" fill="#F5F5F5"/>
<path d="M37.4726 99.4546C37.4726 99.5041 33.8151 99.5452 29.301 99.5452C24.7868 99.5452 21.1211 99.5041 21.1211 99.4546C21.1211 99.4052 24.7868 99.364 29.301 99.364C33.8151 99.364 37.4726 99.3887 37.4726 99.4546Z" fill="#F5F5F5"/>
<path d="M14.4158 93.7871L14.3252 85.459H18.8558L19.0123 93.7871H14.4158Z" fill="#F5F5F5"/>
<path d="M18.5916 86.9419C17.8925 87.0317 17.1871 87.062 16.4828 87.0325C15.7786 87.062 15.0731 87.0317 14.374 86.9419C15.0731 86.8521 15.7786 86.8217 16.4828 86.8513C17.1871 86.8217 17.8925 86.8521 18.5916 86.9419Z" fill="#E0E0E0"/>
<path d="M18.5916 88.227C17.8925 88.3168 17.1871 88.3472 16.4828 88.3176C15.7786 88.3472 15.0731 88.3168 14.374 88.227C15.0731 88.1372 15.7786 88.1069 16.4828 88.1364C17.1871 88.1069 17.8925 88.1372 18.5916 88.227Z" fill="#E0E0E0"/>
<path d="M18.5916 89.5119C17.8925 89.6018 17.1871 89.6321 16.4828 89.6025C15.7786 89.6321 15.0731 89.6018 14.374 89.5119C15.0731 89.4221 15.7786 89.3918 16.4828 89.4213C17.1871 89.3918 17.8925 89.4221 18.5916 89.5119Z" fill="#E0E0E0"/>
<path d="M18.5916 90.7971C17.8925 90.8869 17.1871 90.9172 16.4828 90.8877C15.7786 90.9172 15.0731 90.8869 14.374 90.7971C15.0731 90.7073 15.7786 90.677 16.4828 90.7065C17.1871 90.677 17.8925 90.7073 18.5916 90.7971Z" fill="#E0E0E0"/>
<path d="M18.5916 92.082C17.8925 92.1718 17.1871 92.2021 16.4828 92.1726C15.7786 92.2021 15.0731 92.1718 14.374 92.082C15.0731 91.9922 15.7786 91.9619 16.4828 91.9914C17.1871 91.9619 17.8925 91.9922 18.5916 92.082Z" fill="#E0E0E0"/>
<path d="M14.0859 85.2368H64.3348C64.9081 88.2106 64.9081 91.2666 64.3348 94.2404H14.3001V93.6308H17.3562C17.5476 93.6341 17.7377 93.5993 17.9155 93.5283C18.0933 93.4573 18.2551 93.3517 18.3916 93.2175C18.5281 93.0833 18.6365 92.9233 18.7105 92.7467C18.7845 92.5702 18.8225 92.3807 18.8225 92.1893V87.2056C18.8225 86.8233 18.6706 86.4566 18.4003 86.1862C18.1299 85.9159 17.7633 85.764 17.3809 85.764H14.0859V85.2368Z" fill="#EBEBEB"/>
<path d="M25.9645 89.7425H26.7883C26.8179 89.734 26.8493 89.734 26.8789 89.7425C26.9076 89.7569 26.9315 89.7794 26.9476 89.8072C26.9637 89.835 26.9713 89.8669 26.9695 89.899C26.9741 89.9179 26.9741 89.9377 26.9695 89.9567L26.9201 90.1708C26.8167 90.5217 26.6366 90.8453 26.3929 91.1181C26.3062 91.2269 26.1976 91.3161 26.0741 91.3799C25.9506 91.4438 25.815 91.4809 25.6762 91.4888H25.5774C25.4582 91.4663 25.3454 91.4177 25.2471 91.3465C25.1489 91.2753 25.0675 91.1832 25.009 91.077C24.8271 90.7712 24.7384 90.4191 24.7536 90.0637C24.7552 89.8216 24.7884 89.5806 24.8525 89.3471C24.9419 88.9883 25.114 88.6555 25.355 88.3751C25.4436 88.2585 25.5566 88.1628 25.6861 88.0945C25.8155 88.0262 25.9584 87.987 26.1046 87.9797C26.2154 87.9759 26.3255 87.9985 26.4258 88.0455C26.6632 88.1791 26.8379 88.4013 26.9119 88.6634C26.9201 88.6902 26.9201 88.7189 26.9119 88.7457C26.9119 88.7938 26.8928 88.8399 26.8588 88.8739C26.8248 88.9079 26.7787 88.927 26.7306 88.927H26.673C26.646 88.9209 26.6211 88.9078 26.6009 88.889C26.5806 88.8702 26.5657 88.8463 26.5576 88.8199C26.5348 88.7494 26.5014 88.6828 26.4588 88.6222C26.4177 88.551 26.359 88.4916 26.2883 88.4498C26.2176 88.4079 26.1373 88.385 26.0552 88.3833C25.954 88.3873 25.8563 88.4217 25.7751 88.4821C25.5653 88.655 25.4083 88.8833 25.322 89.1411C25.1943 89.4408 25.1271 89.7627 25.1243 90.0885C25.1175 90.3428 25.1652 90.5956 25.2644 90.8298C25.2975 90.9211 25.3564 91.0007 25.4339 91.0592C25.5114 91.1177 25.6041 91.1524 25.7009 91.1593C25.7819 91.149 25.8597 91.1217 25.9293 91.0791C25.9989 91.0365 26.0586 90.9796 26.1046 90.9122C26.3015 90.6866 26.4501 90.4231 26.5412 90.1379H25.9398C25.808 90.1379 25.7421 90.0473 25.7339 89.9319C25.7257 89.8166 25.7339 89.9319 25.7339 89.8743C25.7396 89.85 25.7502 89.8271 25.7651 89.8071C25.78 89.7871 25.7988 89.7704 25.8205 89.7581C25.8421 89.7457 25.8661 89.7379 25.8909 89.7352C25.9157 89.7326 25.9407 89.735 25.9645 89.7425Z" fill="#FAFAFA"/>
<path d="M28.8147 88.1117V88.1694C28.8147 88.2929 29.0453 89.3308 29.3995 91.2831C29.4034 91.2994 29.4034 91.3163 29.3995 91.3326C29.406 91.3624 29.406 91.3933 29.3995 91.4232C29.3857 91.4506 29.3645 91.4736 29.3383 91.4896C29.3121 91.5056 29.282 91.514 29.2513 91.5138C29.2181 91.5098 29.187 91.4958 29.162 91.4738C29.137 91.4517 29.1193 91.4226 29.1112 91.3902L28.897 90.3935H27.8838L27.3896 91.4314C27.3717 91.457 27.3484 91.4784 27.3213 91.4941C27.2943 91.5097 27.2642 91.5192 27.2331 91.522C27.201 91.5327 27.1663 91.5327 27.1342 91.522C27.1089 91.5065 27.088 91.4846 27.0736 91.4587C27.0592 91.4327 27.0517 91.4035 27.0518 91.3738C27.0491 91.3546 27.0491 91.3352 27.0518 91.3161C27.0518 91.2502 27.1342 91.1349 27.2001 90.9784C27.925 89.405 28.3534 88.5071 28.5016 88.1858C28.5175 88.1547 28.5417 88.1285 28.5715 88.1102C28.6013 88.0919 28.6355 88.0823 28.6705 88.0823C28.7055 88.0823 28.7397 88.0919 28.7696 88.1102C28.7994 88.1285 28.8235 88.1547 28.8394 88.1858L28.8147 88.1117ZM28.5922 88.8036L28.0321 89.9816H28.8558L28.5922 88.8036Z" fill="#FAFAFA"/>
<path d="M31.6159 91.5138H30.1002C30.0681 91.5245 30.0334 91.5245 30.0013 91.5138C30.0013 91.5138 29.9354 91.4232 29.9189 91.3243C29.9189 91.2667 30.059 90.2287 30.3391 88.227C30.3344 88.2053 30.3344 88.1828 30.3391 88.1611C30.3499 88.1264 30.372 88.0963 30.4018 88.0754C30.4316 88.0546 30.4675 88.0441 30.5038 88.0458C30.5308 88.0384 30.5592 88.0384 30.5862 88.0458C30.6149 88.0602 30.6388 88.0827 30.6549 88.1105C30.671 88.1383 30.6786 88.1702 30.6768 88.2023C30.6768 88.3424 30.6274 88.6224 30.5779 89.0261C30.4022 90.3496 30.3116 91.0498 30.3061 91.1266H31.5912C31.6236 91.1186 31.6576 91.1186 31.69 91.1266C31.724 91.1387 31.7534 91.161 31.7741 91.1905C31.7947 91.2201 31.8057 91.2553 31.8053 91.2914C31.8053 91.2914 31.8053 91.3326 31.8053 91.3573C31.7926 91.3991 31.7679 91.4363 31.7342 91.4641C31.7005 91.4919 31.6593 91.5092 31.6159 91.5138Z" fill="#FAFAFA"/>
<path d="M33.6503 88.1114V88.1691C33.6832 88.2899 33.8809 89.3278 34.2434 91.2829C34.2472 91.2991 34.2472 91.3161 34.2434 91.3323C34.2498 91.3622 34.2498 91.3931 34.2434 91.4229C34.2296 91.4503 34.2083 91.4734 34.1821 91.4894C34.156 91.5054 34.1258 91.5137 34.0951 91.5135C34.0631 91.5068 34.0333 91.4919 34.0088 91.4702C33.9843 91.4486 33.9657 91.4209 33.9551 91.39L33.7656 90.3932H32.7359L32.2417 91.4312C32.2238 91.4568 32.2005 91.4781 32.1734 91.4938C32.1464 91.5095 32.1163 91.519 32.0851 91.5218C32.0534 91.5346 32.018 91.5346 31.9863 91.5218C31.9598 91.5076 31.9379 91.4861 31.9233 91.4598C31.9087 91.4335 31.9019 91.4035 31.9039 91.3735C31.9005 91.3544 31.9005 91.3349 31.9039 91.3158L32.0604 90.9781C32.7853 89.4047 33.2137 88.5068 33.3537 88.1856C33.3669 88.15 33.3904 88.1193 33.4212 88.0972C33.4521 88.0752 33.4888 88.0629 33.5267 88.062C33.5727 88.0622 33.6168 88.0799 33.6503 88.1114ZM33.4279 88.8034L32.8677 89.9814H33.6915L33.4279 88.8034Z" fill="#FAFAFA"/>
<path d="M36.1218 89.899C36.2454 90.2203 36.336 90.4756 36.3936 90.6569C36.5502 91.0852 36.6325 91.3159 36.6325 91.3406C36.6426 91.3699 36.6426 91.4018 36.6325 91.4312C36.6183 91.4577 36.5968 91.4796 36.5705 91.4942C36.5442 91.5088 36.5143 91.5155 36.4843 91.5136C36.4184 91.5136 36.3689 91.4724 36.336 91.39V91.3159C36.2536 91.1264 36.1218 90.7722 35.9323 90.245L35.1086 91.4147C35.0925 91.4427 35.0699 91.4663 35.0426 91.4836C35.0153 91.5008 34.9842 91.5111 34.9521 91.5136H34.8532C34.8267 91.4994 34.8048 91.4778 34.7902 91.4515C34.7756 91.4252 34.7689 91.3953 34.7708 91.3653V91.3241C34.7933 91.2703 34.8238 91.2203 34.8615 91.1758C35.1498 90.8051 35.471 90.3521 35.817 89.8496C35.817 89.7507 35.7429 89.6519 35.7099 89.5613C35.3887 88.7375 35.2239 88.2515 35.2239 88.2268C35.2154 88.1972 35.2154 88.1658 35.2239 88.1362C35.2359 88.1074 35.2568 88.0831 35.2834 88.0669C35.31 88.0506 35.3411 88.0431 35.3722 88.0456C35.4063 88.0439 35.4402 88.0524 35.4695 88.07C35.4989 88.0876 35.5223 88.1135 35.5369 88.1444L36.0477 89.5036L36.9455 88.1115C36.9643 88.0848 36.9889 88.0628 37.0174 88.0471C37.046 88.0314 37.0778 88.0224 37.1103 88.0208C37.1371 88.0126 37.1658 88.0126 37.1927 88.0208C37.2214 88.0353 37.2453 88.0578 37.2614 88.0856C37.2775 88.1134 37.2851 88.1453 37.2833 88.1774C37.2906 88.2043 37.2906 88.2328 37.2833 88.2597L36.1218 89.899Z" fill="#FAFAFA"/>
<path d="M39.8448 88.0293C39.8717 88.021 39.9004 88.021 39.9272 88.0293C39.9568 88.0433 39.9818 88.0655 39.9993 88.0932C40.0168 88.1209 40.0261 88.153 40.0261 88.1858C39.7789 90.1381 39.6389 91.2007 39.6142 91.3572C39.5712 91.6527 39.4613 91.9344 39.2929 92.181C39.1791 92.3397 39.0278 92.4679 38.8524 92.5542C38.6771 92.6404 38.4832 92.682 38.2879 92.6752C38.118 92.6693 37.9516 92.6242 37.8019 92.5434C37.5767 92.4541 37.3881 92.2916 37.2665 92.0821C37.2588 92.0524 37.2588 92.0212 37.2665 91.9915C37.2665 91.9434 37.2856 91.8973 37.3196 91.8634C37.3536 91.8294 37.3997 91.8103 37.4477 91.8103C37.4742 91.8105 37.5001 91.8174 37.5232 91.8304C37.5462 91.8433 37.5656 91.8619 37.5795 91.8844C37.6646 92.0141 37.7791 92.122 37.9136 92.1992C38.0481 92.2765 38.1989 92.3211 38.3538 92.3292C38.4699 92.3237 38.5835 92.2937 38.6871 92.2412C38.7908 92.1886 38.8821 92.1148 38.9552 92.0244C39.1654 91.7493 39.2835 91.415 39.2929 91.0689C39.2345 91.1618 39.159 91.2428 39.0705 91.3078C38.9119 91.4209 38.7217 91.4814 38.5268 91.4808H38.428C38.3065 91.4585 38.1916 91.4091 38.0918 91.3364C37.992 91.2637 37.9098 91.1694 37.8514 91.0607C37.6697 90.7579 37.5809 90.4084 37.596 90.0557C37.596 89.8744 37.596 89.685 37.596 89.4873C37.596 89.1825 37.6948 88.7459 37.8019 88.1858C37.7971 88.1669 37.7971 88.147 37.8019 88.1281C37.8113 88.0918 37.8327 88.0599 37.8626 88.0374C37.8926 88.0149 37.9293 88.0034 37.9667 88.0045C37.9937 87.9972 38.0221 87.9972 38.0491 88.0045C38.0778 88.0166 38.1021 88.0374 38.1184 88.064C38.1346 88.0906 38.1421 88.1217 38.1397 88.1528C38.1255 88.3848 38.098 88.6159 38.0573 88.8448C38.001 89.194 37.9625 89.546 37.942 89.8992C37.9299 90.1798 37.9748 90.46 38.0738 90.7229C38.1809 90.97 38.3291 91.0936 38.5268 91.0936H38.5927C38.7827 91.0317 38.9437 90.9029 39.0458 90.7312C39.2254 90.4854 39.3517 90.2048 39.4165 89.9074L39.6471 88.1775V88.1034C39.6662 88.0698 39.6964 88.044 39.7326 88.0305C39.7687 88.0169 39.8084 88.0165 39.8448 88.0293Z" fill="#FAFAFA"/>
<path d="M62.4817 94.3556C62.424 94.3556 62.3828 92.288 62.3828 89.7426C62.3828 87.1972 62.3828 85.1213 62.4817 85.1213C62.5805 85.1213 62.5723 87.189 62.5723 89.7426C62.5723 92.2962 62.4817 94.3556 62.4817 94.3556Z" fill="#F5F5F5"/>
<path d="M21.2942 94.3556C21.2447 94.3556 21.1953 92.288 21.1953 89.7426C21.1953 87.1972 21.2447 85.1213 21.2942 85.1213C21.3436 85.1213 21.3848 87.189 21.3848 89.7426C21.3848 92.2962 21.3765 94.3556 21.2942 94.3556Z" fill="#E0E0E0"/>
<path d="M63.3049 94.3556C63.2472 94.3556 63.2061 92.288 63.2061 89.7426C63.2061 87.1972 63.2061 85.1213 63.3049 85.1213C63.4038 85.1213 63.3955 87.189 63.3955 89.7426C63.3955 92.2962 63.3708 94.3556 63.3049 94.3556Z" fill="#F5F5F5"/>
<path d="M20.4699 94.3556C20.4123 94.3556 20.3711 92.288 20.3711 89.7426C20.3711 87.1972 20.3711 85.1213 20.4699 85.1213C20.5688 85.1213 20.5606 87.189 20.5606 89.7426C20.5606 92.2962 20.5523 94.3556 20.4699 94.3556Z" fill="#E0E0E0"/>
<path d="M50.2567 86.6453L55.5617 90.9288L55.6111 90.97H55.5534L54.845 91.1594L50.3638 92.3374L46.3027 90.6075L45.1494 90.1215L44.8446 89.9897L44.7705 89.9485H44.8529L45.1577 90.0721L46.3109 90.5499L50.4297 92.255L54.9109 91.0771L55.6193 90.8876V90.9453L50.3226 86.6453" fill="#E0E0E0"/>
<path d="M55.0756 90.2451L55.364 90.5169L55.7511 90.4346L55.5864 90.797L55.7841 91.1348L55.3887 91.0853L55.1251 91.3819L55.0509 90.9947L54.6885 90.83L55.0345 90.6405L55.0756 90.2451Z" fill="#E0E0E0"/>
<path d="M49.9855 91.9338L50.1832 92.0986L50.4304 92.0327L50.3315 92.2716L50.4798 92.4775L50.2162 92.461L50.0597 92.667L49.9938 92.4199L49.7549 92.3292L49.9773 92.1892L49.9855 91.9338Z" fill="#E0E0E0"/>
<path d="M44.3594 89.6274L44.6724 89.6439L44.8701 89.3967L44.9442 89.7015L45.2408 89.8086L44.9772 89.9816L44.9607 90.2946L44.7218 90.0969L44.417 90.1793L44.5324 89.891L44.3594 89.6274Z" fill="#E0E0E0"/>
<path d="M57.457 86.7111L57.7701 86.7276L57.9678 86.4805L58.0501 86.7853L58.3467 86.9006L58.0748 87.0653L58.0666 87.3784L57.8195 87.1807L57.5147 87.2713L57.6383 86.9747L57.457 86.7111Z" fill="#E0E0E0"/>
<path d="M50.002 86.5052L50.1997 86.5134L50.3232 86.3569L50.3726 86.5546L50.5621 86.6205L50.3974 86.7276L50.3891 86.9336L50.2326 86.8018L50.0349 86.8594L50.109 86.67L50.002 86.5052Z" fill="#E0E0E0"/>
<path d="M57.9016 86.9337C57.9016 86.9337 56.1799 86.8925 54.0629 86.8019C51.9458 86.7113 50.2324 86.6207 50.2324 86.6042C50.2324 86.5877 51.9458 86.6042 54.0711 86.7278C56.1964 86.8513 57.9016 86.909 57.9016 86.9337Z" fill="#E0E0E0"/>
<path d="M59.8295 85.1625H8.87218C8.20494 83.6468 8.04842 82.2052 8.87218 80.9202H59.8295C60.1444 81.5829 60.3078 82.3075 60.3078 83.0413C60.3078 83.7751 60.1444 84.4997 59.8295 85.1625Z" fill="#E0E0E0"/>
<path d="M47.0278 82.1311H19.4238V83.6715H47.0278V82.1311Z" fill="#EBEBEB"/>
<path d="M10.8321 85.1873C10.6627 85.0445 10.5252 84.8677 10.4285 84.6683C10.1659 84.2088 10.0083 83.6968 9.96717 83.1691C9.91606 82.6398 9.98071 82.1058 10.1566 81.604C10.2171 81.3927 10.3209 81.1963 10.4614 81.0273C10.4206 81.2385 10.36 81.4454 10.2802 81.6452C10.1525 82.1368 10.108 82.6463 10.1484 83.1526C10.2055 83.6661 10.3534 84.1653 10.585 84.6271C10.6786 84.8087 10.7611 84.9958 10.8321 85.1873Z" fill="#E0E0E0"/>
<path d="M11.9364 85.1873C11.7669 85.0445 11.6294 84.8677 11.5327 84.6683C11.2707 84.208 11.1105 83.6967 11.0632 83.1691C11.0185 82.6393 11.0859 82.106 11.2609 81.604C11.3213 81.3927 11.4251 81.1963 11.5657 81.0273C11.5249 81.2385 11.4642 81.4454 11.3844 81.6452C11.2568 82.1368 11.2122 82.6463 11.2526 83.1526C11.2947 83.6586 11.4287 84.1527 11.648 84.6107C11.7563 84.7965 11.8526 84.9891 11.9364 85.1873Z" fill="#E0E0E0"/>
<path d="M57.7695 85.0885C57.972 84.4136 58.0909 83.7164 58.1237 83.0126C58.0973 82.31 57.9867 81.613 57.7942 80.9368C58.1698 81.5617 58.3505 82.2845 58.3132 83.0126C58.3387 83.7428 58.1496 84.4645 57.7695 85.0885Z" fill="#F5F5F5"/>
<path d="M56.8221 85.0718C56.7645 85.0718 56.9786 84.1657 56.9704 83.0454C56.9622 81.9251 56.7562 81.0272 56.8139 81.0107C57.069 81.6577 57.1868 82.3505 57.1599 83.0454C57.1924 83.7372 57.0773 84.428 56.8221 85.0718Z" fill="#F5F5F5"/>
<path d="M101.984 21.9699L83.8369 22.0681L83.941 41.3107L102.088 41.2125L101.984 21.9699Z" fill="#EBEBEB"/>
<path d="M120.234 21.2153L102.087 21.3967L102.279 40.6396L120.427 40.4581L120.234 21.2153Z" fill="#F5F5F5"/>
<path d="M83.8995 27.3927C95.9812 27.4915 108.063 27.4366 120.145 27.2279C120.189 27.2187 120.229 27.1944 120.258 27.1591C120.286 27.1239 120.302 27.0798 120.302 27.0343C120.302 26.9889 120.286 26.9448 120.258 26.9095C120.229 26.8743 120.189 26.85 120.145 26.8407C108.093 26.7748 96.0004 26.8407 83.9489 27.0632C83.9052 27.0632 83.8633 27.0805 83.8324 27.1114C83.8015 27.1423 83.7842 27.1842 83.7842 27.2279C83.7842 27.2716 83.8015 27.3135 83.8324 27.3444C83.8633 27.3753 83.9052 27.3927 83.9489 27.3927H83.8995Z" fill="#E0E0E0"/>
<path d="M105.48 40.8971L72.5137 41.0754L72.5985 56.7595L105.565 56.5811L105.48 40.8971Z" fill="#EBEBEB"/>
<path d="M138.297 40.7196L105.331 40.8979L105.416 56.582L138.382 56.4036L138.297 40.7196Z" fill="#F5F5F5"/>
<path d="M72.5397 45.4412C94.4351 45.6966 116.413 45.4412 138.308 45.12C138.353 45.1107 138.393 45.0864 138.421 45.0512C138.45 45.0159 138.466 44.9718 138.466 44.9264C138.466 44.8809 138.45 44.8368 138.421 44.8016C138.393 44.7663 138.353 44.742 138.308 44.7328C116.413 44.6175 94.4351 44.6339 72.5397 45.1117C72.4961 45.1117 72.4542 45.1291 72.4233 45.16C72.3924 45.1909 72.375 45.2328 72.375 45.2765C72.375 45.3202 72.3924 45.3621 72.4233 45.393C72.4542 45.4239 72.4961 45.4412 72.5397 45.4412Z" fill="#E0E0E0"/>
<path d="M75.7376 129.676L42.7715 129.854L42.8563 145.538L75.8224 145.36L75.7376 129.676Z" fill="#EBEBEB"/>
<path d="M108.546 129.498L75.5801 129.677L75.6649 145.361L108.631 145.182L108.546 129.498Z" fill="#F5F5F5"/>
<path d="M42.7858 134.217C64.6812 134.464 86.6589 134.217 108.554 133.896C108.599 133.886 108.639 133.862 108.667 133.827C108.696 133.792 108.712 133.747 108.712 133.702C108.712 133.657 108.696 133.612 108.667 133.577C108.639 133.542 108.599 133.518 108.554 133.508C86.6507 133.393 64.6812 133.41 42.7858 133.887C42.7421 133.887 42.7002 133.905 42.6693 133.936C42.6385 133.967 42.6211 134.008 42.6211 134.052C42.6211 134.096 42.6385 134.138 42.6693 134.169C42.7002 134.199 42.7421 134.217 42.7858 134.217Z" fill="#E0E0E0"/>
<path d="M31.4854 15.4316L23.1738 15.4766L23.3977 56.853L31.7092 56.8081L31.4854 15.4316Z" fill="#E0E0E0"/>
<path d="M39.5977 -4.83297e-05L31.2861 0.0449219L31.594 56.9489L39.9056 56.9039L39.5977 -4.83297e-05Z" fill="#EBEBEB"/>
<path d="M52.5885 10.589L39.6641 10.6589L39.9136 56.7719L52.838 56.702L52.5885 10.589Z" fill="#F5F5F5"/>
<path d="M52.4975 19.4846C50.3524 19.707 48.1946 19.7813 46.0393 19.7071C43.884 19.7813 41.7261 19.707 39.5811 19.4846C41.7148 19.2584 43.8618 19.1813 46.0063 19.254C48.1728 19.1783 50.3419 19.2553 52.4975 19.4846Z" fill="#E0E0E0"/>
<path d="M52.4975 17.5409C50.3528 17.7687 48.1948 17.8457 46.0393 17.7716C43.8838 17.8457 41.7258 17.7687 39.5811 17.5409C41.7152 17.3201 43.862 17.2457 46.0063 17.3185C48.1726 17.2427 50.3415 17.317 52.4975 17.5409Z" fill="#E0E0E0"/>
<path d="M52.4982 49.7743C50.343 50.0092 48.1741 50.0945 46.007 50.0297C43.8518 50.1039 41.6939 50.0296 39.5488 49.8073C41.6931 49.5739 43.851 49.4886 46.007 49.5519C48.1733 49.4761 50.3422 49.5504 52.4982 49.7743Z" fill="#E0E0E0"/>
<path d="M52.4975 47.8383C50.3524 48.0606 48.1946 48.135 46.0393 48.0607C43.884 48.135 41.7261 48.0606 39.5811 47.8383C41.7152 47.6174 43.862 47.5431 46.0063 47.6159C48.1726 47.5401 50.3415 47.6144 52.4975 47.8383Z" fill="#E0E0E0"/>
<path d="M46.2459 43.6125C46.1223 43.6125 46.0234 38.9583 46.0234 33.2167C46.0234 27.4752 46.1223 22.8457 46.2459 22.8457C46.3694 22.8457 46.4683 27.4999 46.4683 33.2332C46.4683 38.9665 46.3694 43.6125 46.2459 43.6125Z" fill="#E0E0E0"/>
<path d="M66.6991 21.9231H52.6377V56.7349H66.6991V21.9231Z" fill="#EBEBEB"/>
<path d="M37.7035 9.72335C37.7019 10.1948 37.5608 10.6552 37.2981 11.0466C37.0353 11.438 36.6626 11.7429 36.2269 11.9229C35.7912 12.1029 35.312 12.15 34.8496 12.0582C34.3872 11.9665 33.9623 11.7399 33.6284 11.4071C33.2945 11.0744 33.0665 10.6502 32.9731 10.1882C32.8797 9.72607 32.9252 9.2467 33.1037 8.81039C33.2822 8.37408 33.5859 8.00034 33.9764 7.73624C34.3669 7.47214 34.8268 7.32948 35.2982 7.32623C35.614 7.32405 35.9271 7.3845 36.2193 7.5041C36.5116 7.62369 36.7773 7.80004 37.001 8.02296C37.2246 8.24588 37.4019 8.51094 37.5225 8.80281C37.6431 9.09467 37.7046 9.40755 37.7035 9.72335Z" fill="#E0E0E0"/>
<path d="M36.0478 16.2886H34.5732V50.1448H36.0478V16.2886Z" fill="#E0E0E0"/>
<path d="M146.397 104.463H0V109.472H146.397V104.463Z" fill="#E0E0E0"/>
<path d="M146.397 56.9573H0V61.9657H146.397V56.9573Z" fill="#E0E0E0"/>
<path d="M146.398 145.568H29.8779V150.296H146.398V145.568Z" fill="#E0E0E0"/>
<path d="M73.1983 60.9854H67.6133V108.244H73.1983V60.9854Z" fill="#E0E0E0"/>
<path d="M35.4952 104.463H29.9102V150.28H35.4952V104.463Z" fill="#E0E0E0"/>
<path d="M101.148 82.9795L97.7131 87.922C97.7131 87.922 105.44 90.072 105.44 96.9339C105.44 103.796 100.72 105.081 95.5549 105.081C90.3899 105.081 85.4721 103.582 85.6698 96.7197C85.8675 89.8578 92.3175 87.2795 92.3175 87.2795L89.1049 82.996L101.148 82.9795Z" fill="#F5F5F5"/>
<path d="M561 20.3828H555.209V144.835H561V20.3828Z" fill="#E0E0E0"/>
<path d="M554.245 21.3384H471.327C471.281 21.3384 471.244 21.3753 471.244 21.4208V144.918C471.244 144.963 471.281 145 471.327 145H554.245C554.291 145 554.328 144.963 554.328 144.918V21.4208C554.328 21.3753 554.291 21.3384 554.245 21.3384Z" fill="#F5F5F5"/>
<path d="M555.209 145.964H470.362C470.351 145.965 470.34 145.964 470.329 145.96C470.319 145.956 470.309 145.95 470.301 145.942C470.293 145.935 470.287 145.925 470.283 145.914C470.28 145.904 470.278 145.892 470.28 145.881V20.465C470.278 20.4538 470.28 20.4425 470.283 20.4319C470.287 20.4214 470.293 20.4117 470.301 20.4038C470.309 20.3959 470.319 20.3898 470.329 20.3862C470.34 20.3825 470.351 20.3813 470.362 20.3826H555.209C555.22 20.3813 555.231 20.3825 555.242 20.3862C555.252 20.3898 555.262 20.3959 555.27 20.4038C555.278 20.4117 555.284 20.4214 555.287 20.4319C555.291 20.4425 555.292 20.4538 555.291 20.465V145.881C555.292 145.892 555.291 145.904 555.287 145.914C555.284 145.925 555.278 145.935 555.27 145.942C555.262 145.95 555.252 145.956 555.242 145.96C555.231 145.964 555.22 145.965 555.209 145.964ZM472.29 144.036H553.289C553.311 144.036 553.332 144.027 553.348 144.012C553.363 143.996 553.372 143.976 553.372 143.954V22.3843C553.37 22.3631 553.361 22.3432 553.346 22.3281C553.33 22.3131 553.311 22.3038 553.289 22.3019H472.29C472.269 22.3038 472.249 22.3131 472.234 22.3281C472.219 22.3432 472.209 22.3631 472.207 22.3843V143.937C472.205 143.949 472.205 143.962 472.208 143.974C472.211 143.986 472.217 143.997 472.225 144.006C472.233 144.016 472.243 144.024 472.254 144.029C472.265 144.034 472.277 144.036 472.29 144.036Z" fill="#EBEBEB"/>
<path d="M546.032 28.9744H479.696C479.65 28.9744 479.613 29.0112 479.613 29.0567V137.215C479.613 137.261 479.65 137.298 479.696 137.298H546.032C546.078 137.298 546.115 137.261 546.115 137.215V29.0567C546.115 29.0112 546.078 28.9744 546.032 28.9744Z" fill="white"/>
<path d="M531.41 59.6838H494.169C494.141 59.6838 494.119 59.706 494.119 59.7333V103.4C494.119 103.428 494.141 103.45 494.169 103.45H531.41C531.438 103.45 531.46 103.428 531.46 103.4V59.7333C531.46 59.706 531.438 59.6838 531.41 59.6838Z" fill="#EBEBEB"/>
<path d="M528.503 98.0872C528.552 98.2272 526.707 99.0345 523.206 98.6226C521.05 98.3427 518.999 97.524 517.242 96.242C514.857 94.4655 513.21 91.8735 512.613 88.96C512.267 87.135 512.412 85.2507 513.035 83.5006C513.657 81.7505 514.734 80.1974 516.155 79.0008C516.957 78.3315 517.865 77.7999 518.84 77.4275C519.915 77.0355 521.066 76.9028 522.201 77.0403C523.448 77.1608 524.623 77.6775 525.554 78.5148C526.08 79.0056 526.477 79.619 526.708 80.3003C526.94 80.9816 526.999 81.7097 526.88 82.4194C526.627 83.7032 525.982 84.8772 525.035 85.7803C524.204 86.6041 523.258 87.3033 522.226 87.8562C520.164 88.998 517.867 89.6518 515.513 89.7673C513.022 89.8984 510.545 89.3275 508.362 88.1198C506.106 86.8637 504.274 84.9656 503.099 82.6665C501.884 80.312 501.55 77.6007 502.159 75.0221C502.75 72.5304 504.167 70.3122 506.179 68.7286C507.187 67.9516 508.333 67.3729 509.557 67.0235C510.8 66.6932 512.102 66.6537 513.362 66.9082C514.692 67.1615 515.902 67.8445 516.806 68.8522C517.679 69.8807 518.161 71.1851 518.165 72.5344C518.174 73.7657 517.862 74.9781 517.259 76.0518C516.71 77.024 515.99 77.8891 515.134 78.6054C513.589 79.9064 511.787 80.8664 509.845 81.4227C508.039 81.9506 506.142 82.0965 504.277 81.851C502.542 81.609 500.886 80.9751 499.433 79.9976C498.185 79.1755 497.126 78.096 496.329 76.8316C495.532 75.5672 495.015 74.147 494.812 72.6662C494.559 70.4317 495.172 68.1853 496.525 66.3892C497.325 65.2648 498.424 64.3861 499.696 63.852C500.52 63.5225 501.064 63.5308 501.08 63.6131C501.097 63.6955 500.685 63.9262 499.985 64.4369C498.975 65.1242 498.131 66.0274 497.514 67.0811C496.547 68.6936 496.19 70.5991 496.509 72.452C496.759 73.6458 497.254 74.7747 497.963 75.7673C498.672 76.7598 499.579 77.5944 500.627 78.2183C501.897 78.9622 503.314 79.4211 504.779 79.5634C506.244 79.7056 507.722 79.5277 509.112 79.042C510.677 78.5427 512.122 77.7236 513.354 76.6367C513.96 76.1624 514.452 75.5593 514.795 74.8711C515.139 74.1829 515.325 73.4269 515.34 72.6579C515.333 71.9569 515.07 71.2826 514.599 70.7632C514.128 70.2437 513.483 69.9154 512.786 69.8407C511.965 69.6864 511.119 69.723 510.315 69.9478C509.477 70.2049 508.695 70.6155 508.008 71.1587C506.551 72.3354 505.528 73.9645 505.1 75.7882C504.674 77.6627 504.928 79.6275 505.817 81.3321C506.73 83.0736 508.137 84.5065 509.862 85.4508C511.549 86.3859 513.462 86.8337 515.389 86.7441C517.288 86.6636 519.144 86.1539 520.817 85.2531C521.61 84.8492 522.342 84.3362 522.992 83.7292C523.521 83.2474 523.901 82.6243 524.088 81.9334C524.143 81.6751 524.132 81.4069 524.054 81.1544C523.976 80.902 523.835 80.6738 523.643 80.4918C523.146 80.0354 522.517 79.7472 521.847 79.6681C521.137 79.5614 520.412 79.6235 519.73 79.8493C519.019 80.0982 518.354 80.4628 517.761 80.9284C516.639 81.8259 515.771 83.0014 515.244 84.3381C514.716 85.6747 514.548 87.1261 514.755 88.5481C515.154 91.0049 516.416 93.2391 518.313 94.8498C519.798 96.0844 521.549 96.9585 523.429 97.4035C526.584 98.186 528.478 97.8071 528.503 98.0872Z" fill="#E0E0E0"/>
<path d="M135.326 354.282V374.613H165.064H197.857V354.282H135.326Z" fill="#F5F5F5"/>
<path d="M132.706 348.598V354.282H200.048V348.598H165.063H132.706Z" fill="#E0E0E0"/>
<path d="M166.373 374.612H197.857V354.282H200.048V348.598H165.063V353.755L166.373 374.612Z" fill="#E0E0E0"/>
<path d="M156.752 357.561H144.074V360.625H156.752V357.561Z" fill="#E0E0E0"/>
<path d="M158.729 364.448H142.443V370.914H158.729V364.448Z" fill="white"/>
<path d="M149.882 328.293V348.623H179.611H212.413V328.293H149.882Z" fill="#F5F5F5"/>
<path d="M147.254 322.609V328.293H214.596V322.609H179.611H147.254Z" fill="#E0E0E0"/>
<path d="M180.929 348.623H212.413V328.293H214.596V322.609H179.611V327.766L180.929 348.623Z" fill="#E0E0E0"/>
<path d="M171.3 331.572H158.622V334.636H171.3V331.572Z" fill="#E0E0E0"/>
<path d="M173.276 338.458H156.99V344.924H173.276V338.458Z" fill="white"/>
<path d="M22.4141 353.549V373.88H52.1515H84.9451V353.549H22.4141Z" fill="#F5F5F5"/>
<path d="M19.7949 347.865V353.549H87.1367V347.865H52.1519H19.7949Z" fill="#E0E0E0"/>
<path d="M53.4611 373.88H84.9449V353.549H87.1361V347.865H52.1514V353.022L53.4611 373.88Z" fill="#E0E0E0"/>
<path d="M43.8397 356.828H31.1621V359.892H43.8397V356.828Z" fill="#E0E0E0"/>
<path d="M45.8168 363.714H29.5312V370.181H45.8168V363.714Z" fill="white"/>
<path d="M525.278 187.119C525.278 187.235 415.488 187.334 280.088 187.334C144.688 187.334 34.8818 187.235 34.8818 187.119C34.8818 187.004 144.647 186.93 280.08 186.93C415.513 186.93 525.278 186.996 525.278 187.119Z" fill="#263238"/>
<path d="M481.955 61.9074L481.815 313.819C481.815 315.671 481.45 317.505 480.74 319.217C480.031 320.928 478.991 322.482 477.681 323.791C476.37 325.1 474.815 326.138 473.103 326.845C471.391 327.553 469.556 327.916 467.704 327.913L93.9098 327.749C92.0576 327.749 90.2234 327.384 88.5123 326.674C86.8013 325.965 85.2468 324.925 83.9378 323.615C82.6288 322.304 81.5909 320.749 80.8836 319.037C80.1762 317.325 79.8133 315.49 79.8154 313.638L79.9472 61.6767C79.956 57.9393 81.4462 54.3577 84.0914 51.7172C86.7365 49.0767 90.3206 47.5927 94.0581 47.5906L467.852 47.7883C471.594 47.7926 475.181 49.2821 477.825 51.9295C480.47 54.5769 481.955 58.1656 481.955 61.9074Z" fill="#E0E0E0"/>
<path d="M481.955 61.9075C481.955 61.9075 481.955 61.611 481.897 61.0343C481.888 60.6752 481.852 60.3173 481.79 59.9635C481.724 59.4659 481.625 58.9734 481.494 58.4889C481.158 57.1075 480.601 55.7891 479.846 54.5844C478.817 52.9106 477.454 51.4666 475.843 50.342C474.876 49.658 473.824 49.104 472.713 48.6945C471.487 48.2387 470.203 47.9613 468.899 47.8708L467.861 47.8214H293.761H194.597H139.406H95.7471C94.5173 47.7809 93.2862 47.836 92.0649 47.9861C90.8506 48.1556 89.6647 48.4881 88.5393 48.9746C86.2609 49.9508 84.2824 51.5142 82.806 53.5052C82.4491 54.0132 82.1218 54.5413 81.8257 55.0868C81.5444 55.6224 81.2915 56.1723 81.0678 56.7343C80.6335 57.8977 80.3564 59.1139 80.2441 60.3506C80.1617 61.578 80.1782 62.8219 80.1782 64.1152V67.9127C80.1782 72.976 80.1782 78.075 80.1782 83.2097C80.1782 93.4737 80.1782 103.85 80.1782 114.339C80.1782 135.318 80.1782 156.719 80.1782 178.543C80.1782 222.16 80.137 267.31 80.1123 313.556C80.1333 314.981 80.3466 316.397 80.7466 317.765C81.1924 319.114 81.8275 320.392 82.633 321.562C83.45 322.727 84.4419 323.757 85.5738 324.619C86.6906 325.492 87.9428 326.176 89.2807 326.645C91.9414 327.724 94.8575 327.469 97.7159 327.469H106.299H140.329H206.863L332.65 327.551L446.46 327.625H459.714H466.254C467.329 327.652 468.405 327.616 469.475 327.518C470.533 327.389 471.573 327.138 472.573 326.769C474.555 326.041 476.347 324.875 477.815 323.357C479.283 321.839 480.388 320.009 481.049 318.004C481.206 317.51 481.313 316.999 481.453 316.496C481.593 315.994 481.626 315.475 481.667 314.956C481.741 313.926 481.741 312.88 481.733 311.834C481.733 309.742 481.733 307.663 481.733 305.598C481.733 289.057 481.733 273.197 481.733 258.018C481.79 197.398 481.84 148.344 481.873 114.438C481.873 97.4854 481.922 84.3218 481.939 75.4006C481.939 70.9358 481.939 67.5337 481.939 65.2437C481.939 62.9537 481.939 61.7922 481.939 61.7922C481.939 61.7922 481.939 62.9619 481.939 65.2437C481.939 67.5255 481.939 70.9358 481.939 75.4006C481.939 84.3218 481.939 97.4854 481.939 114.438C481.939 148.344 481.939 197.398 481.939 258.018C481.939 273.175 481.939 289.035 481.939 305.598V311.834C481.939 312.88 481.939 313.926 481.873 314.989C481.823 315.516 481.724 316.043 481.65 316.57C481.576 317.098 481.403 317.608 481.238 318.111C480.564 320.167 479.432 322.044 477.928 323.6C476.425 325.157 474.588 326.353 472.556 327.098C471.534 327.478 470.469 327.732 469.385 327.856C468.29 327.966 467.189 328.004 466.09 327.971H446.32L332.502 327.93L206.723 327.872H140.189H106.159H97.6335C96.2002 327.872 94.7751 327.872 93.3253 327.872C90.3891 327.749 87.562 326.725 85.2278 324.94C84.0585 324.059 83.0379 322.997 82.2046 321.793C81.3655 320.59 80.7103 319.268 80.2606 317.872C79.8398 316.466 79.618 315.007 79.6016 313.539C79.6016 267.294 79.651 222.103 79.6757 178.526C79.6757 156.724 79.6894 135.323 79.7169 114.323C79.7169 103.839 79.7169 93.4627 79.7169 83.1933C79.7169 78.064 79.7169 72.965 79.7169 67.8962V64.1481C79.7169 62.8795 79.7169 61.6274 79.7828 60.3424C79.9141 59.071 80.2104 57.8221 80.6642 56.6273C80.8878 56.0318 81.1492 55.4513 81.4468 54.8891C81.76 54.3377 82.1038 53.8042 82.4765 53.2911C83.9796 51.2359 86.0004 49.6158 88.3333 48.5957C89.493 48.0957 90.715 47.7549 91.9661 47.5825C93.2037 47.4293 94.4514 47.3742 95.6977 47.4177H110.443H139.332H194.523L293.687 47.5001L437.349 47.6731H459.879H467.869L468.915 47.7225C470.228 47.8082 471.521 48.0858 472.754 48.5463C473.869 48.9577 474.927 49.5115 475.901 50.1938C477.516 51.3325 478.882 52.7903 479.912 54.4773C480.666 55.6887 481.222 57.0123 481.56 58.3983C481.686 58.8859 481.779 59.3812 481.84 59.8811C481.899 60.2379 481.932 60.5985 481.939 60.9602C481.947 61.611 481.955 61.9075 481.955 61.9075Z" fill="#263238"/>
<path d="M107.502 56.9486V319.404H443.222V56.9486H107.502Z" fill="white"/>
<path d="M461.732 177.101C463.859 177.102 465.939 177.735 467.706 178.919C469.474 180.103 470.85 181.785 471.662 183.752C472.473 185.719 472.682 187.882 472.263 189.968C471.844 192.054 470.815 193.969 469.307 195.47C467.8 196.971 465.88 197.99 463.793 198.4C461.705 198.809 459.542 198.59 457.579 197.77C455.616 196.95 453.941 195.565 452.765 193.792C451.589 192.019 450.966 189.937 450.974 187.81C450.985 184.964 452.123 182.239 454.14 180.232C456.156 178.225 458.887 177.099 461.732 177.101Z" fill="#263238"/>
<path d="M91.3975 146.375V228.734C91.3975 229.289 91.8474 229.739 92.4024 229.739H94.8325C95.3875 229.739 95.8375 229.289 95.8375 228.734V146.375C95.8375 145.82 95.3875 145.37 94.8325 145.37H92.4024C91.8474 145.37 91.3975 145.82 91.3975 146.375Z" fill="#263238"/>
<path d="M260.11 279.782H137.775C135.304 279.782 133.302 281.784 133.302 284.255V297.056C133.302 299.526 135.304 301.529 137.775 301.529H260.11C262.581 301.529 264.583 299.526 264.583 297.056V284.255C264.583 281.784 262.581 279.782 260.11 279.782Z" fill="#F5F5F5"/>
<path d="M258.99 233.199H136.655C134.184 233.199 132.182 235.201 132.182 237.672V250.473C132.182 252.943 134.184 254.946 136.655 254.946H258.99C261.46 254.946 263.463 252.943 263.463 250.473V237.672C263.463 235.201 261.46 233.199 258.99 233.199Z" fill="#F5F5F5"/>
<path d="M400.074 233.199H277.739C275.268 233.199 273.266 235.201 273.266 237.672V250.473C273.266 252.943 275.268 254.946 277.739 254.946H400.074C402.544 254.946 404.547 252.943 404.547 250.473V237.672C404.547 235.201 402.544 233.199 400.074 233.199Z" fill="#F5F5F5"/>
<path d="M398.699 100.838H281.248C278.778 100.838 276.775 102.841 276.775 105.311V118.112C276.775 120.583 278.778 122.585 281.248 122.585H398.699C401.169 122.585 403.172 120.583 403.172 118.112V105.311C403.172 102.841 401.169 100.838 398.699 100.838Z" fill="#F5F5F5"/>
<path d="M401.68 144.027H137.775C135.304 144.027 133.302 146.03 133.302 148.5V161.301C133.302 163.772 135.304 165.774 137.775 165.774H401.68C404.151 165.774 406.153 163.772 406.153 161.301V148.5C406.153 146.03 404.151 144.027 401.68 144.027Z" fill="#F5F5F5"/>
<path d="M259.913 100.838H137.577C135.107 100.838 133.104 102.841 133.104 105.311V118.112C133.104 120.583 135.107 122.585 137.577 122.585H259.913C262.383 122.585 264.386 120.583 264.386 118.112V105.311C264.386 102.841 262.383 100.838 259.913 100.838Z" fill="#F5F5F5"/>
<path d="M142.207 112.23V113.713H141.597V112.222L139.9 109.454H140.551L141.927 111.711L143.302 109.454H143.904L142.207 112.23Z" fill="#E0E0E0"/>
<path d="M143.763 112.09C143.755 111.755 143.847 111.424 144.028 111.141C144.208 110.858 144.469 110.635 144.777 110.501C145.084 110.367 145.425 110.328 145.755 110.388C146.086 110.449 146.39 110.606 146.631 110.841C146.871 111.075 147.036 111.376 147.104 111.704C147.173 112.033 147.142 112.375 147.016 112.686C146.889 112.997 146.673 113.263 146.394 113.45C146.116 113.638 145.788 113.738 145.452 113.738C145.232 113.743 145.013 113.705 144.809 113.625C144.604 113.544 144.418 113.424 144.26 113.27C144.103 113.117 143.978 112.933 143.892 112.731C143.807 112.528 143.763 112.31 143.763 112.09ZM146.547 112.09C146.538 111.876 146.465 111.669 146.339 111.496C146.213 111.322 146.039 111.19 145.838 111.114C145.637 111.039 145.419 111.024 145.209 111.072C145 111.119 144.81 111.227 144.661 111.382C144.513 111.537 144.414 111.733 144.375 111.944C144.337 112.155 144.361 112.372 144.445 112.57C144.529 112.767 144.67 112.935 144.849 113.054C145.028 113.172 145.237 113.235 145.452 113.235C145.602 113.242 145.752 113.216 145.891 113.16C146.031 113.104 146.157 113.02 146.261 112.911C146.366 112.803 146.446 112.674 146.497 112.532C146.547 112.391 146.568 112.24 146.556 112.09H146.547Z" fill="#E0E0E0"/>
<path d="M150.988 110.468V113.713H150.427V113.227C150.298 113.395 150.13 113.53 149.938 113.62C149.746 113.711 149.536 113.754 149.324 113.746C149.134 113.766 148.943 113.743 148.764 113.679C148.585 113.615 148.423 113.512 148.289 113.376C148.155 113.241 148.054 113.078 147.992 112.898C147.93 112.718 147.909 112.527 147.931 112.338V110.468H148.516V112.272C148.516 112.906 148.838 113.227 149.398 113.227C149.538 113.236 149.679 113.213 149.809 113.161C149.94 113.109 150.057 113.028 150.152 112.925C150.248 112.821 150.319 112.698 150.361 112.564C150.403 112.429 150.414 112.287 150.394 112.148V110.501L150.988 110.468Z" fill="#E0E0E0"/>
<path d="M153.855 110.435V111.011H153.715C153.572 111.003 153.429 111.026 153.296 111.079C153.163 111.132 153.044 111.214 152.946 111.319C152.849 111.424 152.775 111.548 152.732 111.685C152.688 111.821 152.675 111.965 152.693 112.107V113.754H152.108V110.509H152.669V111.053C152.788 110.848 152.962 110.681 153.172 110.572C153.382 110.463 153.619 110.415 153.855 110.435Z" fill="#E0E0E0"/>
<path d="M160.041 109.454V113.738H159.538L156.944 110.517V113.713H156.334V109.454H156.836L159.407 112.651V109.454H160.041Z" fill="#E0E0E0"/>
<path d="M163.814 111.753V113.713H163.254V113.285C163.13 113.445 162.967 113.571 162.781 113.652C162.596 113.733 162.393 113.765 162.191 113.746C161.45 113.746 160.988 113.359 160.988 112.799C160.988 112.239 161.326 111.843 162.29 111.843H163.221V111.728C163.221 111.234 162.932 110.945 162.356 110.945C161.981 110.939 161.617 111.064 161.326 111.3L161.079 110.855C161.467 110.569 161.94 110.421 162.422 110.435C163.311 110.435 163.814 110.863 163.814 111.753ZM163.221 112.725V112.272H162.315C161.738 112.272 161.573 112.494 161.573 112.774C161.573 113.054 161.837 113.293 162.282 113.293C162.475 113.311 162.669 113.268 162.838 113.171C163.006 113.073 163.14 112.926 163.221 112.749V112.725Z" fill="#E0E0E0"/>
<path d="M170.289 111.843V113.713H169.704V111.926C169.704 111.283 169.391 110.97 168.88 110.97C168.37 110.97 167.908 111.349 167.908 112.049V113.697H167.315V111.926C167.315 111.283 167.01 110.97 166.491 110.97C166.353 110.965 166.215 110.99 166.088 111.044C165.96 111.098 165.846 111.18 165.754 111.283C165.661 111.386 165.592 111.507 165.551 111.64C165.511 111.772 165.5 111.912 165.519 112.049V113.697H164.935V110.451H165.495V110.937C165.626 110.767 165.796 110.631 165.991 110.54C166.186 110.45 166.4 110.408 166.615 110.418C166.841 110.402 167.066 110.45 167.266 110.556C167.465 110.663 167.631 110.823 167.744 111.019C167.887 110.825 168.077 110.668 168.295 110.563C168.513 110.458 168.754 110.408 168.996 110.418C169.18 110.409 169.363 110.44 169.533 110.511C169.704 110.581 169.856 110.688 169.98 110.824C170.103 110.961 170.195 111.123 170.249 111.299C170.302 111.475 170.316 111.661 170.289 111.843Z" fill="#E0E0E0"/>
<path d="M174.308 112.288H171.681C171.72 112.566 171.863 112.819 172.082 112.995C172.301 113.171 172.579 113.257 172.859 113.235C173.032 113.24 173.205 113.208 173.366 113.142C173.526 113.075 173.671 112.975 173.789 112.848L174.119 113.227C173.955 113.402 173.756 113.539 173.534 113.628C173.312 113.718 173.073 113.758 172.834 113.746C172.61 113.758 172.386 113.725 172.176 113.648C171.965 113.57 171.773 113.451 171.61 113.297C171.447 113.143 171.318 112.957 171.229 112.751C171.141 112.545 171.095 112.323 171.096 112.099C171.088 111.88 171.125 111.662 171.205 111.459C171.285 111.255 171.406 111.07 171.56 110.916C171.715 110.761 171.9 110.64 172.103 110.56C172.307 110.48 172.525 110.443 172.743 110.451C172.959 110.445 173.174 110.484 173.375 110.565C173.575 110.646 173.756 110.768 173.907 110.923C174.058 111.078 174.175 111.262 174.252 111.464C174.328 111.667 174.361 111.883 174.35 112.099C174.34 112.163 174.326 112.226 174.308 112.288ZM171.681 111.868H173.765C173.742 111.608 173.622 111.365 173.429 111.189C173.236 111.012 172.984 110.914 172.723 110.914C172.461 110.914 172.209 111.012 172.017 111.189C171.824 111.365 171.704 111.608 171.681 111.868Z" fill="#E0E0E0"/>
<path d="M174.737 90.5082L174.036 91.4226L175.149 91.2743V91.7768L174.036 91.645L174.745 92.5347L174.284 92.7983L173.839 91.7686L173.361 92.8065L172.941 92.5347L173.641 91.645L172.554 91.785V91.2826L173.633 91.4226L172.924 90.5082L173.377 90.2529L173.831 91.2743L174.275 90.2446L174.737 90.5082Z" fill="white"/>
<path d="M143.047 245.374V246.856H142.445V245.374L140.74 242.589H141.399L142.767 244.846L144.142 242.589H144.752L143.047 245.374Z" fill="#E0E0E0"/>
<path d="M144.587 245.225C144.587 244.901 144.683 244.584 144.862 244.314C145.041 244.045 145.296 243.833 145.595 243.708C145.893 243.582 146.223 243.547 146.541 243.607C146.859 243.667 147.153 243.82 147.385 244.047C147.617 244.273 147.777 244.563 147.845 244.879C147.913 245.196 147.886 245.526 147.768 245.828C147.65 246.129 147.445 246.39 147.179 246.575C146.914 246.761 146.6 246.865 146.276 246.873C146.056 246.878 145.837 246.84 145.632 246.759C145.428 246.679 145.241 246.559 145.084 246.405C144.927 246.252 144.801 246.068 144.716 245.865C144.631 245.663 144.587 245.445 144.587 245.225ZM147.363 245.225C147.376 245.074 147.358 244.922 147.309 244.778C147.26 244.634 147.182 244.502 147.079 244.39C146.976 244.278 146.852 244.189 146.713 244.128C146.574 244.066 146.423 244.035 146.271 244.035C146.12 244.035 145.969 244.066 145.83 244.128C145.691 244.189 145.567 244.278 145.464 244.39C145.361 244.502 145.283 244.634 145.234 244.778C145.185 244.922 145.167 245.074 145.18 245.225C145.167 245.377 145.185 245.529 145.234 245.673C145.283 245.817 145.361 245.949 145.464 246.061C145.567 246.173 145.691 246.262 145.83 246.323C145.969 246.384 146.12 246.416 146.271 246.416C146.423 246.416 146.574 246.384 146.713 246.323C146.852 246.262 146.976 246.173 147.079 246.061C147.182 245.949 147.26 245.817 147.309 245.673C147.358 245.529 147.376 245.377 147.363 245.225Z" fill="#E0E0E0"/>
<path d="M151.828 243.603V246.848H151.276V246.354C151.149 246.524 150.982 246.661 150.789 246.753C150.597 246.845 150.385 246.889 150.173 246.881C149.983 246.901 149.792 246.878 149.612 246.814C149.433 246.75 149.27 246.646 149.136 246.511C149.002 246.376 148.899 246.213 148.836 246.033C148.773 245.853 148.752 245.662 148.772 245.472V243.603H149.365V245.374C149.365 246.016 149.678 246.329 150.238 246.329C150.378 246.337 150.518 246.315 150.649 246.263C150.779 246.211 150.896 246.131 150.992 246.029C151.088 245.927 151.16 245.805 151.203 245.672C151.247 245.539 151.261 245.397 151.243 245.258V243.611L151.828 243.603Z" fill="#E0E0E0"/>
<path d="M154.695 243.57V244.138H154.563C154.42 244.128 154.276 244.15 154.142 244.203C154.009 244.255 153.889 244.337 153.791 244.442C153.693 244.547 153.62 244.673 153.577 244.81C153.533 244.947 153.521 245.091 153.541 245.234V246.881H152.948V243.636H153.517V244.179C153.635 243.976 153.808 243.811 154.017 243.703C154.226 243.595 154.461 243.549 154.695 243.57Z" fill="#E0E0E0"/>
<path d="M160.881 242.564V246.848H160.379L157.809 243.652V246.848H157.199V242.564H157.702L160.272 245.761V242.564H160.881Z" fill="#E0E0E0"/>
<path d="M164.654 244.888V246.848H164.093V246.42C163.969 246.58 163.807 246.706 163.621 246.787C163.436 246.868 163.232 246.9 163.031 246.881C162.298 246.881 161.828 246.494 161.828 245.926C161.828 245.357 162.166 244.978 163.138 244.978H164.069V244.863C164.069 244.369 163.78 244.08 163.196 244.08C162.823 244.076 162.46 244.198 162.166 244.426L161.927 243.99C162.311 243.703 162.782 243.554 163.261 243.57C164.151 243.57 164.654 243.998 164.654 244.888ZM164.069 245.851V245.374H163.163C162.578 245.374 162.413 245.604 162.413 245.876C162.413 246.148 162.685 246.403 163.13 246.403C163.324 246.42 163.519 246.376 163.687 246.277C163.856 246.179 163.989 246.03 164.069 245.851Z" fill="#E0E0E0"/>
<path d="M171.129 244.978V246.848H170.544V245.044C170.544 244.41 170.239 244.097 169.72 244.097C169.201 244.097 168.748 244.467 168.748 245.176V246.823H168.163V245.044C168.163 244.41 167.859 244.097 167.34 244.097C166.821 244.097 166.368 244.467 166.368 245.176V246.823H165.774V243.578H166.343V244.064C166.471 243.891 166.641 243.752 166.837 243.662C167.033 243.571 167.248 243.531 167.463 243.545C167.689 243.53 167.914 243.578 168.113 243.684C168.313 243.791 168.478 243.95 168.592 244.146C168.732 243.949 168.919 243.791 169.136 243.686C169.354 243.58 169.594 243.532 169.836 243.545C170.02 243.535 170.205 243.567 170.376 243.638C170.546 243.708 170.699 243.816 170.823 243.954C170.947 244.091 171.039 244.254 171.092 244.431C171.145 244.609 171.157 244.795 171.129 244.978Z" fill="#E0E0E0"/>
<path d="M175.157 245.423H172.521C172.56 245.701 172.703 245.954 172.922 246.13C173.141 246.306 173.418 246.392 173.698 246.37C173.874 246.376 174.049 246.344 174.211 246.276C174.373 246.207 174.519 246.105 174.638 245.975L174.959 246.354C174.719 246.596 174.414 246.763 174.082 246.836C173.749 246.908 173.402 246.884 173.083 246.765C172.764 246.646 172.486 246.437 172.283 246.164C172.079 245.891 171.959 245.565 171.936 245.225C171.928 245.007 171.965 244.789 172.045 244.586C172.125 244.382 172.246 244.197 172.4 244.043C172.555 243.888 172.74 243.767 172.943 243.687C173.147 243.607 173.365 243.57 173.583 243.578C173.799 243.573 174.013 243.613 174.212 243.695C174.411 243.776 174.592 243.898 174.742 244.053C174.892 244.208 175.008 244.392 175.084 244.593C175.159 244.795 175.193 245.01 175.181 245.225C175.178 245.292 175.169 245.358 175.157 245.423ZM172.521 244.995H174.605C174.581 244.734 174.462 244.492 174.269 244.316C174.076 244.139 173.824 244.041 173.563 244.041C173.301 244.041 173.049 244.139 172.856 244.316C172.664 244.492 172.544 244.734 172.521 244.995Z" fill="#E0E0E0"/>
<path d="M282.977 245.374V246.856H282.368V245.374L280.671 242.589H281.33L282.706 244.846L284.081 242.589H284.683L282.977 245.374Z" fill="#E0E0E0"/>
<path d="M284.576 245.225C284.568 244.89 284.66 244.559 284.84 244.276C285.021 243.993 285.281 243.77 285.589 243.636C285.897 243.502 286.238 243.463 286.568 243.523C286.898 243.583 287.203 243.741 287.443 243.975C287.683 244.21 287.848 244.511 287.917 244.839C287.986 245.168 287.955 245.509 287.828 245.82C287.702 246.131 287.485 246.398 287.207 246.585C286.928 246.772 286.6 246.873 286.264 246.873C286.045 246.878 285.826 246.84 285.621 246.759C285.417 246.679 285.23 246.559 285.073 246.405C284.915 246.251 284.79 246.068 284.705 245.865C284.62 245.663 284.576 245.445 284.576 245.225ZM287.36 245.225C287.35 245.011 287.278 244.804 287.152 244.631C287.026 244.457 286.851 244.324 286.651 244.249C286.45 244.174 286.231 244.159 286.022 244.206C285.813 244.254 285.622 244.362 285.474 244.517C285.326 244.672 285.226 244.867 285.188 245.078C285.149 245.29 285.174 245.507 285.258 245.705C285.342 245.902 285.482 246.07 285.661 246.189C285.84 246.307 286.05 246.37 286.264 246.37C286.414 246.375 286.563 246.349 286.701 246.292C286.84 246.236 286.965 246.151 287.068 246.043C287.172 245.935 287.251 245.806 287.301 245.665C287.352 245.524 287.372 245.374 287.36 245.225Z" fill="#E0E0E0"/>
<path d="M291.792 243.603V246.848H291.215V246.354C291.088 246.524 290.921 246.661 290.728 246.753C290.536 246.845 290.324 246.889 290.112 246.881C289.923 246.899 289.732 246.875 289.554 246.811C289.376 246.746 289.214 246.643 289.081 246.508C288.947 246.373 288.846 246.21 288.783 246.031C288.721 245.852 288.699 245.661 288.719 245.472V243.603H289.304V245.374C289.304 246.016 289.625 246.329 290.186 246.329C290.325 246.338 290.465 246.315 290.595 246.263C290.725 246.211 290.842 246.131 290.937 246.029C291.032 245.927 291.104 245.804 291.146 245.671C291.188 245.538 291.201 245.397 291.182 245.258V243.611L291.792 243.603Z" fill="#E0E0E0"/>
<path d="M294.659 243.57V244.138H294.511C294.367 244.128 294.224 244.15 294.09 244.203C293.957 244.255 293.837 244.337 293.739 244.442C293.641 244.547 293.568 244.673 293.524 244.81C293.481 244.947 293.469 245.091 293.489 245.234V246.881H292.904V243.636H293.464V244.179C293.585 243.975 293.762 243.809 293.973 243.701C294.185 243.593 294.422 243.548 294.659 243.57Z" fill="#E0E0E0"/>
<path d="M300.845 242.564V246.848H300.342L297.805 243.652V246.848H297.195V242.564H297.698L300.268 245.761V242.564H300.845Z" fill="#E0E0E0"/>
<path d="M304.617 244.888V246.848H304.057V246.42C303.932 246.579 303.77 246.704 303.584 246.785C303.399 246.865 303.196 246.898 302.995 246.881C302.253 246.881 301.792 246.494 301.792 245.926C301.792 245.357 302.13 244.978 303.094 244.978H304.024V244.863C304.024 244.369 303.736 244.08 303.159 244.08C302.787 244.076 302.424 244.198 302.13 244.426L301.883 243.99C302.271 243.704 302.743 243.556 303.225 243.57C304.115 243.57 304.617 243.998 304.617 244.888ZM304.024 245.852V245.374H303.118C302.542 245.374 302.377 245.604 302.377 245.876C302.377 246.148 302.64 246.403 303.094 246.403C303.287 246.42 303.481 246.376 303.647 246.277C303.814 246.178 303.946 246.029 304.024 245.852Z" fill="#E0E0E0"/>
<path d="M311.093 244.978V246.848H310.508V245.044C310.508 244.41 310.195 244.097 309.684 244.097C309.173 244.097 308.712 244.467 308.712 245.176V246.823H308.119V245.044C308.119 244.41 307.814 244.097 307.295 244.097C306.776 244.097 306.323 244.467 306.323 245.176V246.823H305.738V243.578H306.298V244.064C306.428 243.892 306.598 243.754 306.794 243.664C306.989 243.573 307.204 243.532 307.419 243.545C307.644 243.53 307.869 243.578 308.069 243.684C308.268 243.791 308.434 243.95 308.547 244.146C308.69 243.95 308.879 243.793 309.098 243.688C309.316 243.583 309.557 243.534 309.799 243.545C309.984 243.535 310.169 243.567 310.339 243.638C310.51 243.708 310.663 243.816 310.787 243.954C310.911 244.091 311.003 244.254 311.056 244.431C311.108 244.609 311.121 244.795 311.093 244.978Z" fill="#E0E0E0"/>
<path d="M315.104 245.423H312.476C312.515 245.701 312.658 245.954 312.877 246.13C313.096 246.306 313.374 246.392 313.654 246.37C313.828 246.376 314.002 246.344 314.163 246.275C314.324 246.207 314.468 246.105 314.585 245.975L314.914 246.354C314.674 246.595 314.37 246.763 314.037 246.835C313.704 246.908 313.358 246.884 313.039 246.765C312.72 246.646 312.442 246.437 312.238 246.164C312.035 245.891 311.914 245.565 311.891 245.225C311.882 245.007 311.918 244.788 311.997 244.584C312.077 244.38 312.198 244.195 312.353 244.04C312.508 243.885 312.693 243.764 312.897 243.684C313.101 243.605 313.32 243.569 313.539 243.578C313.755 243.572 313.97 243.611 314.17 243.692C314.37 243.773 314.552 243.895 314.703 244.05C314.854 244.205 314.971 244.389 315.047 244.591C315.123 244.794 315.156 245.009 315.145 245.225C315.136 245.292 315.122 245.358 315.104 245.423ZM312.476 244.995H314.56C314.537 244.735 314.416 244.495 314.222 244.322C314.027 244.149 313.774 244.057 313.514 244.064C313.255 244.057 313.004 244.15 312.812 244.323C312.621 244.496 312.503 244.737 312.484 244.995H312.476Z" fill="#E0E0E0"/>
<path d="M143.047 156.194V157.677H142.445V156.178L140.74 153.393H141.399L142.767 155.65L144.142 153.393H144.752L143.047 156.194Z" fill="#E0E0E0"/>
<path d="M144.587 156.054C144.587 155.73 144.683 155.413 144.862 155.143C145.041 154.873 145.296 154.662 145.595 154.536C145.893 154.411 146.223 154.376 146.541 154.436C146.859 154.496 147.153 154.649 147.385 154.875C147.617 155.102 147.777 155.391 147.845 155.708C147.913 156.025 147.886 156.355 147.768 156.657C147.65 156.958 147.445 157.218 147.179 157.404C146.914 157.59 146.6 157.694 146.276 157.702C146.056 157.707 145.837 157.669 145.632 157.588C145.428 157.508 145.241 157.388 145.084 157.234C144.927 157.08 144.801 156.897 144.716 156.694C144.631 156.492 144.587 156.274 144.587 156.054ZM147.363 156.054C147.376 155.903 147.358 155.751 147.309 155.607C147.26 155.463 147.182 155.331 147.079 155.219C146.976 155.107 146.852 155.018 146.713 154.956C146.574 154.895 146.423 154.864 146.271 154.864C146.12 154.864 145.969 154.895 145.83 154.956C145.691 155.018 145.567 155.107 145.464 155.219C145.361 155.331 145.283 155.463 145.234 155.607C145.185 155.751 145.167 155.903 145.18 156.054C145.167 156.206 145.185 156.358 145.234 156.502C145.283 156.646 145.361 156.778 145.464 156.89C145.567 157.001 145.691 157.091 145.83 157.152C145.969 157.213 146.12 157.245 146.271 157.245C146.423 157.245 146.574 157.213 146.713 157.152C146.852 157.091 146.976 157.001 147.079 156.89C147.182 156.778 147.26 156.646 147.309 156.502C147.358 156.358 147.376 156.206 147.363 156.054Z" fill="#E0E0E0"/>
<path d="M151.828 154.431V157.677H151.276V157.182C151.149 157.353 150.982 157.49 150.789 157.582C150.597 157.674 150.385 157.718 150.173 157.71C149.983 157.729 149.792 157.706 149.612 157.642C149.433 157.578 149.27 157.475 149.136 157.34C149.002 157.205 148.899 157.041 148.836 156.862C148.773 156.682 148.752 156.49 148.772 156.301V154.431H149.365V156.227C149.365 156.869 149.678 157.182 150.238 157.182C150.378 157.191 150.518 157.168 150.649 157.116C150.779 157.065 150.896 156.985 150.992 156.882C151.088 156.78 151.16 156.658 151.203 156.525C151.247 156.392 151.261 156.251 151.243 156.112V154.464L151.828 154.431Z" fill="#E0E0E0"/>
<path d="M154.695 154.398V154.967H154.563C154.42 154.957 154.276 154.979 154.142 155.031C154.009 155.084 153.889 155.166 153.791 155.271C153.693 155.376 153.62 155.501 153.577 155.638C153.533 155.775 153.521 155.92 153.541 156.062V157.71H152.948V154.431H153.517V154.975C153.639 154.778 153.814 154.619 154.023 154.517C154.231 154.415 154.464 154.374 154.695 154.398Z" fill="#E0E0E0"/>
<path d="M160.305 157.141V157.677H157.199V153.393H160.239V153.937H157.825V155.255H159.975V155.774H157.825V157.158L160.305 157.141Z" fill="#E0E0E0"/>
<path d="M166.598 155.807V157.677H166.005V155.873C166.005 155.239 165.7 154.926 165.181 154.926C164.662 154.926 164.209 155.296 164.209 156.005V157.652H163.624V155.848C163.624 155.214 163.319 154.901 162.8 154.901C162.282 154.901 161.828 155.271 161.828 155.98V157.627H161.235V154.431H161.804V154.917C161.933 154.745 162.103 154.608 162.299 154.518C162.494 154.427 162.709 154.386 162.924 154.398C163.148 154.383 163.373 154.431 163.571 154.538C163.769 154.644 163.933 154.804 164.044 155C164.187 154.804 164.376 154.646 164.595 154.541C164.813 154.436 165.054 154.387 165.296 154.398C165.479 154.388 165.662 154.419 165.832 154.487C166.002 154.556 166.155 154.662 166.279 154.796C166.403 154.931 166.496 155.091 166.551 155.266C166.607 155.441 166.623 155.625 166.598 155.807Z" fill="#E0E0E0"/>
<path d="M170.256 155.716V157.677H169.704V157.232C169.578 157.392 169.414 157.518 169.227 157.598C169.04 157.679 168.836 157.711 168.633 157.693C167.9 157.693 167.438 157.306 167.438 156.738C167.438 156.17 167.776 155.791 168.74 155.791H169.671V155.675C169.671 155.181 169.383 154.893 168.798 154.893C168.428 154.89 168.068 155.012 167.776 155.239L167.529 154.802C167.917 154.515 168.39 154.367 168.872 154.382C169.056 154.354 169.243 154.369 169.42 154.426C169.598 154.482 169.759 154.579 169.893 154.708C170.027 154.837 170.129 154.995 170.192 155.17C170.255 155.345 170.277 155.532 170.256 155.716ZM169.671 156.68V156.227H168.765C168.18 156.227 168.015 156.458 168.015 156.73C168.015 157.002 168.287 157.257 168.732 157.257C168.929 157.272 169.126 157.224 169.295 157.121C169.463 157.017 169.595 156.863 169.671 156.68Z" fill="#E0E0E0"/>
<path d="M171.244 153.426C171.244 153.375 171.254 153.324 171.274 153.276C171.294 153.229 171.324 153.186 171.36 153.15C171.397 153.114 171.441 153.085 171.489 153.066C171.537 153.047 171.588 153.038 171.64 153.039C171.716 153.041 171.79 153.065 171.852 153.108C171.915 153.152 171.963 153.213 171.991 153.284C172.019 153.355 172.026 153.432 172.01 153.507C171.994 153.581 171.957 153.65 171.902 153.703C171.848 153.756 171.779 153.792 171.704 153.807C171.629 153.821 171.552 153.813 171.481 153.783C171.411 153.754 171.351 153.704 171.309 153.641C171.267 153.577 171.244 153.503 171.244 153.426ZM171.351 154.431H171.936V157.677H171.351V154.431Z" fill="#E0E0E0"/>
<path d="M173.057 153.114H173.642V157.661H173.057V153.114Z" fill="#E0E0E0"/>
<path d="M159.975 133.747L159.275 134.661L160.387 134.513V135.015L159.275 134.884L159.984 135.773L159.522 136.037L159.077 135.007L158.591 136.045L158.18 135.773L158.872 134.884L157.784 135.024V134.521L158.872 134.661L158.18 133.763L158.624 133.508L159.077 134.529L159.531 133.5L159.975 133.747Z" fill="white"/>
<path d="M401.672 190.174H137.371C134.901 190.174 132.898 192.176 132.898 194.647V207.448C132.898 209.918 134.901 211.921 137.371 211.921H401.672C404.143 211.921 406.145 209.918 406.145 207.448V194.647C406.145 192.176 404.143 190.174 401.672 190.174Z" fill="#F5F5F5"/>
<path d="M144.456 201.847V203.362H143.854V201.863L142.116 199.046H142.775L144.143 201.303L145.518 199.046H146.128L144.456 201.847Z" fill="#E0E0E0"/>
<path d="M146.029 201.715C146.029 201.391 146.125 201.074 146.304 200.804C146.484 200.534 146.739 200.323 147.037 200.197C147.336 200.071 147.665 200.036 147.983 200.097C148.302 200.157 148.595 200.31 148.827 200.536C149.059 200.762 149.219 201.052 149.287 201.369C149.356 201.686 149.329 202.016 149.21 202.317C149.092 202.619 148.887 202.879 148.622 203.065C148.356 203.251 148.042 203.354 147.718 203.362C147.498 203.368 147.28 203.329 147.075 203.249C146.87 203.169 146.684 203.048 146.526 202.895C146.369 202.741 146.244 202.558 146.159 202.355C146.073 202.152 146.029 201.935 146.029 201.715ZM148.805 201.715C148.818 201.564 148.8 201.411 148.751 201.267C148.702 201.124 148.624 200.992 148.521 200.88C148.419 200.768 148.294 200.678 148.155 200.617C148.016 200.556 147.866 200.524 147.714 200.524C147.562 200.524 147.412 200.556 147.273 200.617C147.134 200.678 147.009 200.768 146.906 200.88C146.804 200.992 146.725 201.124 146.677 201.267C146.628 201.411 146.609 201.564 146.622 201.715C146.609 201.866 146.628 202.019 146.677 202.162C146.725 202.306 146.804 202.438 146.906 202.55C147.009 202.662 147.134 202.751 147.273 202.813C147.412 202.874 147.562 202.905 147.714 202.905C147.866 202.905 148.016 202.874 148.155 202.813C148.294 202.751 148.419 202.662 148.521 202.55C148.624 202.438 148.702 202.306 148.751 202.162C148.8 202.019 148.818 201.866 148.805 201.715Z" fill="#E0E0E0"/>
<path d="M153.237 200.067V203.362H152.685V202.868C152.557 203.038 152.39 203.175 152.198 203.267C152.006 203.359 151.794 203.403 151.581 203.395C151.392 203.415 151.201 203.392 151.022 203.328C150.843 203.264 150.681 203.16 150.547 203.025C150.413 202.89 150.312 202.726 150.25 202.547C150.188 202.367 150.167 202.175 150.189 201.986V200.067H150.774V201.863C150.774 202.505 151.095 202.818 151.647 202.818C151.788 202.828 151.928 202.807 152.059 202.755C152.19 202.704 152.308 202.624 152.404 202.522C152.5 202.419 152.572 202.297 152.615 202.163C152.658 202.029 152.671 201.887 152.652 201.748V200.1L153.237 200.067Z" fill="#E0E0E0"/>
<path d="M156.12 200.067V200.636H155.988C155.845 200.626 155.701 200.648 155.568 200.7C155.434 200.753 155.314 200.835 155.216 200.94C155.118 201.045 155.045 201.17 155.002 201.307C154.959 201.444 154.947 201.589 154.967 201.731V203.379H154.382V200.067H154.942V200.611C155.069 200.42 155.246 200.268 155.454 200.172C155.662 200.076 155.893 200.04 156.12 200.067Z" fill="#E0E0E0"/>
<path d="M162.289 199.046V203.362H161.787L159.217 200.166V203.362H158.591V199.079H159.093L161.663 202.275V199.079L162.289 199.046Z" fill="#E0E0E0"/>
<path d="M166.516 200.067V203.362H166.005V202.868C165.877 203.038 165.71 203.175 165.518 203.267C165.326 203.359 165.114 203.403 164.901 203.395C164.712 203.415 164.52 203.392 164.341 203.328C164.162 203.264 163.999 203.16 163.864 203.025C163.73 202.89 163.628 202.727 163.565 202.547C163.502 202.367 163.48 202.176 163.501 201.986V200.067H164.094V201.863C164.094 202.505 164.407 202.818 164.967 202.818C165.107 202.827 165.247 202.804 165.377 202.752C165.507 202.701 165.624 202.621 165.72 202.518C165.816 202.416 165.889 202.294 165.932 202.161C165.975 202.028 165.989 201.887 165.972 201.748V200.1L166.516 200.067Z" fill="#E0E0E0"/>
<path d="M173.023 201.459V203.362H172.438V201.558C172.438 200.924 172.134 200.611 171.615 200.611C171.476 200.606 171.338 200.631 171.211 200.685C171.083 200.739 170.969 200.82 170.877 200.923C170.784 201.026 170.715 201.148 170.675 201.281C170.634 201.413 170.623 201.553 170.643 201.69V203.337H170.058V201.533C170.058 200.899 169.753 200.586 169.234 200.586C169.096 200.581 168.958 200.606 168.83 200.66C168.703 200.714 168.589 200.796 168.496 200.899C168.403 201.002 168.334 201.123 168.294 201.256C168.253 201.388 168.243 201.528 168.262 201.665V203.313H167.652V200.067H168.221V200.553C168.35 200.393 168.515 200.266 168.702 200.181C168.89 200.097 169.094 200.058 169.3 200.067C169.524 200.052 169.748 200.1 169.947 200.206C170.145 200.313 170.309 200.473 170.42 200.668C170.564 200.473 170.753 200.317 170.971 200.212C171.19 200.107 171.43 200.057 171.672 200.067C171.858 200.05 172.045 200.074 172.219 200.138C172.394 200.203 172.552 200.306 172.682 200.439C172.811 200.573 172.909 200.734 172.968 200.91C173.027 201.087 173.046 201.274 173.023 201.459Z" fill="#E0E0E0"/>
<path d="M177.472 201.715C177.481 201.933 177.445 202.152 177.365 202.356C177.286 202.56 177.165 202.745 177.01 202.9C176.855 203.055 176.67 203.176 176.466 203.256C176.261 203.335 176.043 203.371 175.824 203.362C175.601 203.373 175.379 203.329 175.178 203.232C174.976 203.136 174.802 202.991 174.671 202.81V203.362H174.103V198.823H174.696V200.611C174.828 200.439 174.999 200.301 175.196 200.209C175.392 200.118 175.608 200.074 175.824 200.084C176.042 200.074 176.259 200.11 176.461 200.189C176.664 200.267 176.849 200.387 177.004 200.54C177.158 200.693 177.28 200.876 177.36 201.078C177.441 201.281 177.479 201.497 177.472 201.715ZM176.879 201.715C176.869 201.5 176.797 201.294 176.67 201.12C176.544 200.946 176.37 200.814 176.169 200.738C175.968 200.663 175.75 200.648 175.541 200.696C175.331 200.744 175.141 200.852 174.993 201.007C174.844 201.162 174.745 201.357 174.706 201.568C174.668 201.779 174.692 201.997 174.776 202.194C174.861 202.391 175.001 202.56 175.18 202.678C175.359 202.796 175.568 202.859 175.783 202.86C175.932 202.865 176.081 202.838 176.22 202.782C176.358 202.725 176.484 202.64 176.587 202.532C176.69 202.424 176.77 202.295 176.82 202.155C176.87 202.014 176.89 201.864 176.879 201.715Z" fill="#E0E0E0"/>
<path d="M181.211 201.904H178.575C178.614 202.182 178.758 202.435 178.977 202.611C179.195 202.787 179.473 202.873 179.753 202.851C179.929 202.857 180.104 202.825 180.266 202.757C180.428 202.688 180.574 202.586 180.692 202.456L181.014 202.835C180.773 203.077 180.469 203.244 180.136 203.317C179.804 203.389 179.457 203.365 179.138 203.246C178.819 203.127 178.541 202.918 178.337 202.645C178.134 202.372 178.013 202.046 177.99 201.706C177.982 201.488 178.019 201.27 178.099 201.067C178.179 200.863 178.3 200.678 178.455 200.524C178.61 200.369 178.794 200.248 178.998 200.168C179.201 200.088 179.419 200.051 179.638 200.059C179.854 200.053 180.069 200.092 180.269 200.173C180.47 200.254 180.651 200.376 180.802 200.531C180.953 200.686 181.07 200.87 181.146 201.072C181.222 201.275 181.256 201.491 181.244 201.706C181.219 201.772 181.211 201.846 181.211 201.904ZM178.575 201.476H180.659C180.636 201.215 180.516 200.973 180.323 200.797C180.131 200.62 179.879 200.522 179.617 200.522C179.356 200.522 179.104 200.62 178.911 200.797C178.718 200.973 178.598 201.215 178.575 201.476Z" fill="#E0E0E0"/>
<path d="M183.781 200.067V200.636H183.65C183.507 200.626 183.363 200.648 183.229 200.7C183.096 200.753 182.976 200.835 182.878 200.94C182.78 201.045 182.707 201.17 182.663 201.307C182.62 201.444 182.608 201.589 182.628 201.731V203.379H182.035V200.067H182.604V200.611C182.73 200.42 182.907 200.268 183.115 200.172C183.323 200.076 183.554 200.04 183.781 200.067Z" fill="#E0E0E0"/>
<path d="M443.552 56.6108H107.494V77.1799H443.552V56.6108Z" fill="white"/>
<path d="M127.544 65.8945V67.2537H129.924V68.2093H127.544V70.0874H126.357V64.9719H130.246V65.9275L127.544 65.8945Z" fill="white"/>
<path d="M130.674 67.509C130.641 66.944 130.778 66.3821 131.068 65.8961C131.358 65.4101 131.788 65.0224 132.301 64.7833C132.814 64.5442 133.387 64.4647 133.946 64.555C134.504 64.6454 135.023 64.9015 135.434 65.2901C135.846 65.6787 136.131 66.182 136.253 66.7347C136.375 67.2873 136.329 67.8639 136.119 68.3897C135.91 68.9156 135.547 69.3664 135.079 69.6837C134.61 70.0011 134.057 70.1704 133.491 70.1697C133.129 70.1911 132.766 70.1381 132.425 70.014C132.084 69.8898 131.771 69.6972 131.508 69.448C131.244 69.1988 131.034 68.8982 130.89 68.5647C130.747 68.2313 130.673 67.872 130.674 67.509ZM135.097 67.509C135.097 67.1814 134.999 66.8613 134.817 66.5896C134.634 66.3178 134.374 66.1068 134.07 65.9834C133.767 65.86 133.434 65.8299 133.113 65.8968C132.792 65.9638 132.499 66.1249 132.27 66.3594C132.042 66.594 131.888 66.8913 131.829 67.2136C131.77 67.5358 131.809 67.8683 131.94 68.1686C132.071 68.4688 132.288 68.7231 132.565 68.8991C132.841 69.0751 133.164 69.1647 133.491 69.1565C133.707 69.1625 133.922 69.1237 134.122 69.0425C134.323 68.9612 134.504 68.8394 134.655 68.6846C134.806 68.5298 134.923 68.3455 134.999 68.1431C135.075 67.9408 135.109 67.7249 135.097 67.509Z" fill="white"/>
<path d="M140.469 70.0874L139.48 68.6541H138.385V70.0874H137.174V64.9719H139.406C140.782 64.9719 141.639 65.6804 141.639 66.8336C141.662 67.1848 141.572 67.5343 141.382 67.8308C141.193 68.1272 140.913 68.3552 140.584 68.4811L141.737 70.1286L140.469 70.0874ZM139.357 65.911H138.385V67.6985H139.357C140.082 67.6985 140.452 67.3608 140.452 66.8007C140.452 66.2405 140.09 65.911 139.365 65.911H139.357Z" fill="white"/>
<path d="M147.289 70.0874V66.9984L145.774 69.5438H145.238L143.731 67.0725V70.0957H142.61V64.9719H143.599L145.526 68.1681L147.421 64.9719H148.401V70.1204L147.289 70.0874Z" fill="white"/>
<path d="M443.452 57.1378H107.732L107.93 56.9401C107.889 135.271 107.856 224.755 107.806 319.371L107.592 319.149L443.321 319.363L443.139 319.544C443.329 161.12 443.452 58.5629 443.452 57.0883C443.452 58.5629 443.452 161.12 443.494 319.544V319.725H443.321L107.592 319.585H107.378V319.338C107.436 224.722 107.493 135.238 107.543 56.9071V56.7341H107.732L443.452 57.1378Z" fill="#263238"/>
</svg>
